<?xml version="1.0" encoding="UTF-8"?>
<svg id="Capa_1" xmlns="http://www.w3.org/2000/svg" version="1.1" viewBox="0 0 177 29">
  <!-- Generator: Adobe Illustrator 29.7.1, SVG Export Plug-In . SVG Version: 2.1.1 Build 8)  -->
  <path d="M19.5,13.7v6.1h-4.4v-5.3c0-1.3-.5-1.8-1.2-1.8s-1.4.5-1.4,2v5.2h-4.4v-5.3c0-1.3-.4-1.8-1.2-1.8s-1.4.5-1.4,2v5.2H1.2v-10.7h4.2v1c.8-.8,1.9-1.2,3-1.2s2.6.5,3.3,1.6c.9-1,2.1-1.6,3.6-1.6,2.4,0,4.3,1.4,4.3,4.8Z"/>
  <path d="M33.1,9.1l-4.4,10.9c-1.2,2.9-2.9,3.8-5.1,3.8s-2.5-.4-3.2-1l1.5-3c.4.3,1,.6,1.6.6s.9-.2,1.1-.4l-4.5-10.8h4.5l2.2,5.7,2.2-5.7h4.2Z"/>
  <path d="M52.2,13.7v6.1h-4.4v-5.3c0-1.3-.5-1.8-1.2-1.8s-1.4.5-1.4,2v5.2h-4.4v-5.3c0-1.3-.4-1.8-1.2-1.8s-1.4.5-1.4,2v5.2h-4.4v-10.7h4.2v1c.8-.8,1.9-1.2,3-1.2s2.6.5,3.3,1.6c.9-1,2.1-1.6,3.6-1.6,2.4,0,4.3,1.4,4.3,4.8Z"/>
  <path d="M71.8,5.3v14.5h-4.2v-.9c-.6.7-1.6,1.1-2.9,1.1-2.8,0-5.2-2.1-5.2-5.5s2.4-5.5,5.2-5.5,2.1.3,2.7.9v-4.5h4.4ZM67.4,14.4c0-1.4-.8-2.1-1.7-2.1s-1.7.7-1.7,2.1.8,2.1,1.7,2.1,1.7-.7,1.7-2.1Z"/>
  <path d="M85,15.4h-7.4c.3.8,1.1,1.2,2.1,1.2s1.5-.3,2.2-.8l2.3,2.3c-1,1.1-2.5,1.7-4.7,1.7-3.9,0-6.5-2.4-6.5-5.5s2.6-5.5,6-5.5,5.9,1.9,5.9,5.5,0,.7,0,1ZM77.5,13.3h3.4c-.2-.9-.8-1.4-1.7-1.4s-1.5.5-1.7,1.4Z"/>
  <path d="M98.1,9.1l-4.3,10.7h-4.6l-4.3-10.7h4.5l2.1,5.7,2.3-5.7h4.2Z"/>
  <path d="M109.8,15.4h-7.4c.3.8,1.1,1.2,2.1,1.2s1.5-.3,2.2-.8l2.3,2.3c-1,1.1-2.5,1.7-4.7,1.7-3.9,0-6.5-2.4-6.5-5.5s2.6-5.5,6-5.5,5.9,1.9,5.9,5.5,0,.7,0,1ZM102.3,13.3h3.4c-.2-.9-.8-1.4-1.7-1.4s-1.5.5-1.7,1.4Z"/>
  <path d="M111.3,5.3h4.4v14.5h-4.4V5.3Z"/>
  <path d="M117.1,14.4c0-3.2,2.6-5.5,6.2-5.5s6.2,2.3,6.2,5.5-2.6,5.5-6.2,5.5-6.2-2.3-6.2-5.5ZM125,14.4c0-1.4-.8-2.1-1.7-2.1s-1.7.7-1.7,2.1.8,2.1,1.7,2.1,1.7-.7,1.7-2.1Z"/>
  <path d="M143.1,14.4c0,3.4-2.4,5.5-5.1,5.5s-2.1-.3-2.7-.9v4.5h-4.4v-14.5h4.2v.9c.6-.7,1.6-1.1,2.9-1.1,2.8,0,5.1,2.1,5.1,5.5ZM138.7,14.4c0-1.4-.8-2.1-1.7-2.1s-1.7.7-1.7,2.1.8,2.1,1.7,2.1,1.7-.7,1.7-2.1Z"/>
  <path d="M155.8,15.4h-7.4c.3.8,1.1,1.2,2.1,1.2s1.5-.3,2.2-.8l2.3,2.3c-1,1.1-2.5,1.7-4.7,1.7-3.9,0-6.5-2.4-6.5-5.5s2.6-5.5,6-5.5,5.9,1.9,5.9,5.5,0,.7,0,1ZM148.3,13.3h3.4c-.2-.9-.8-1.4-1.7-1.4s-1.5.5-1.7,1.4Z"/>
  <path d="M164.9,8.9v3.9c-.4,0-.7,0-1,0-1.3,0-2.3.6-2.3,2.3v4.7h-4.4v-10.7h4.2v1.2c.8-.9,2-1.3,3.5-1.3Z"/>
  <path d="M165.5,18.9l1.2-2.9c1,.6,2.5,1,3.7,1s1.4-.2,1.4-.5c0-1.1-6.1.4-6.1-3.9s1.9-3.6,5.5-3.6,3.2.3,4.4.9l-1.2,2.9c-1.1-.6-2.2-.8-3.1-.8s-1.4.3-1.4.5c0,1.1,6.1-.3,6.1,3.9s-1.8,3.6-5.5,3.6-3.7-.4-4.8-1.1Z"/>
</svg>