<?xml version="1.0" encoding="UTF-8"?>
<svg id="Capa_1" xmlns="http://www.w3.org/2000/svg" version="1.1" viewBox="0 0 327 54">
  <!-- Generator: Adobe Illustrator 29.7.1, SVG Export Plug-In . SVG Version: 2.1.1 Build 8)  -->
  <defs>
    <style>
      .st0 {
        fill: #fff;
      }

      .st1 {
        fill: #8c8c8c;
      }
    </style>
  </defs>
  <path class="st1" d="M25.5-77.5c-3.4,0-6.8.7-9.9,2-3.2,1.3-6,3.2-8.4,5.6-2.4,2.4-4.3,5.3-5.6,8.4-1.3,3.2-2,6.5-2,9.9h26v-26Z"/>
  <path class="st1" d="M25.5-25.5c-3.4,0-6.8-.7-9.9-2-3.2-1.3-6-3.2-8.4-5.6-2.4-2.4-4.3-5.3-5.6-8.4-1.3-3.2-2-6.5-2-9.9h26v26Z"/>
  <path class="st1" d="M51.5-25.5c-3.4,0-6.8-.7-9.9-2-3.2-1.3-6-3.2-8.4-5.6-2.4-2.4-4.3-5.3-5.6-8.4-1.3-3.2-2-6.5-2-9.9h26v26Z"/>
  <path class="st1" d="M77.5-25.5c-3.4,0-6.8-.7-9.9-2-3.2-1.3-6-3.2-8.4-5.6s-4.3-5.3-5.6-8.4c-1.3-3.2-2-6.5-2-9.9h26v26Z"/>
  <path class="st1" d="M51.5-77.5c3.4,0,6.8.7,9.9,2,3.2,1.3,6,3.2,8.4,5.6,2.4,2.4,4.3,5.3,5.6,8.4,1.3,3.2,2,6.5,2,9.9h-26v-26Z"/>
  <path class="st1" d="M25.5-77.5c3.4,0,6.8.7,9.9,2,3.2,1.3,6,3.2,8.4,5.6,2.4,2.4,4.3,5.3,5.6,8.4,1.3,3.2,2,6.5,2,9.9h-26v-26Z"/>
  <path class="st1" d="M117.1-25.3c-5.1,0-9.6-1.1-13.6-3.3-3.9-2.3-6.9-5.4-9-9.3-2.2-4-3.2-8.5-3.2-13.7s1.1-9.6,3.2-13.5c2.2-3.9,5.2-6.9,9-9.1,3.9-2.2,8.2-3.3,13.1-3.3s9.4,1.1,13.2,3.3c3.9,2.2,6.9,5.2,9,9.1,2.2,3.9,3.2,8.4,3.2,13.5s-.6,6.7-1.7,9.7c-1.1,3-2.9,5.6-5.2,7.7-2.4,2.1-5.4,3.6-9.2,4.6l-8.9,4.2ZM116.6-32.4c3.2,0,6-.8,8.4-2.3,2.4-1.6,4.4-3.9,5.7-6.8,1.4-2.9,2-6.3,2-10.2s-.7-6.9-2-9.6c-1.3-2.8-3.2-4.9-5.6-6.4-2.4-1.6-5.2-2.3-8.5-2.3s-6,.8-8.5,2.3c-2.4,1.5-4.3,3.6-5.6,6.4-1.3,2.7-2,6-2,9.7s.7,7.3,2,10.2c1.4,2.9,3.2,5.1,5.6,6.7,2.4,1.6,5.2,2.3,8.4,2.3ZM117.1-25.3l-.4-6.4,27.8-1.6v7.3c-3,0-5.6,0-7.8,0-2.2,0-4.3.2-6.3.3-1.9,0-4,.2-6.1.2-2.1,0-4.5.1-7.2.1ZM159.9-25.3c-2.5,0-4.7-.5-6.5-1.6-1.8-1.1-3.2-2.5-4.2-4.4-.9-1.8-1.4-3.9-1.4-6.2v-24.6h8.9v22.7c0,2.2.5,3.9,1.6,5,1.1,1.1,2.7,1.7,4.7,1.7s3.4-.4,4.8-1.3c1.4-.8,2.5-2,3.3-3.5.8-1.6,1.3-3.3,1.3-5.2l.9,8.6c-1.2,2.6-2.9,4.8-5.3,6.4-2.3,1.6-5,2.3-8.2,2.3ZM172.7-26v-8.5h-.3v-27.5h9V-26h-8.7ZM210.3-26c-.2-.9-.4-2-.6-3.1,0-1.1-.1-2.5-.1-4.1h-.3v-17.1c0-1.9-.5-3.3-1.6-4.2-1-1-2.6-1.5-4.8-1.5s-3.8.4-5.1,1.2c-1.2.8-2,1.9-2.3,3.3h-8.5c.4-3.3,2-6,4.8-8.1,2.8-2.1,6.6-3.1,11.4-3.1s8.7,1.1,11.2,3.4c2.5,2.2,3.8,5.5,3.8,9.8v16.3c0,1.1,0,2.3.2,3.5.2,1.2.4,2.4.8,3.7h-8.9ZM197.9-25.3c-3.6,0-6.5-.9-8.7-2.7-2.1-1.8-3.2-4.3-3.2-7.3s1.2-5.9,3.6-7.8c2.4-1.9,5.8-3.2,10.2-3.9l11.2-1.7v5.6l-9.7,1.5c-2.1.3-3.7.9-4.8,1.8-1,.8-1.6,2-1.6,3.5s.5,2.4,1.5,3.2c1,.7,2.4,1.1,4.1,1.1,2.5,0,4.7-.6,6.4-1.9,1.7-1.3,2.5-2.8,2.5-4.7l1,5.4c-.9,2.6-2.5,4.6-4.7,5.9-2.1,1.3-4.7,2-7.8,2ZM225.1-26v-36h8.7v8.5h.2v27.5h-8.9ZM250.4-26v-22.7c0-2.2-.6-3.9-1.7-5-1.1-1.1-2.8-1.7-4.9-1.7s-3.6.4-5.1,1.3c-1.5.8-2.6,2-3.5,3.5-.8,1.5-1.2,3.2-1.2,5.2l-.9-8.6c1.2-2.6,3-4.7,5.4-6.3,2.4-1.6,5.2-2.4,8.5-2.4s6.9,1.1,9.1,3.3c2.2,2.2,3.3,5.2,3.3,8.8v24.6h-9ZM281.1-25.3c-4.4,0-7.7-1-9.8-3.1-2.1-2.1-3.1-5.3-3.1-9.5v-32.3l9-3.3v35.9c0,1.7.5,3,1.4,3.9.9.8,2.4,1.3,4.4,1.3s1.5,0,2.1-.1c.7-.1,1.3-.3,1.8-.5v6.9c-.6.3-1.4.5-2.4.6-1,.2-2.2.3-3.5.3ZM261.3-55v-7h25.7v7h-25.7ZM306.7-25.3c-3.8,0-7.2-.8-10.1-2.4-2.9-1.6-5.1-3.8-6.7-6.6-1.6-2.9-2.4-6.1-2.4-9.8s.8-6.9,2.4-9.7c1.6-2.8,3.8-4.9,6.7-6.5,2.9-1.6,6.3-2.4,10.1-2.4s7.2.8,10.1,2.4c2.9,1.6,5.1,3.7,6.7,6.5,1.6,2.8,2.4,6,2.4,9.7s-.8,6.9-2.5,9.8c-1.6,2.8-3.8,5-6.7,6.6-2.9,1.6-6.2,2.4-10,2.4ZM306.7-32.4c1.9,0,3.6-.5,5.1-1.4,1.5-1,2.7-2.4,3.5-4.1.8-1.8,1.3-3.9,1.3-6.3,0-3.5-.9-6.3-2.8-8.3-1.8-2-4.2-3-7.1-3s-5.2,1-7.1,3c-1.9,2-2.8,4.8-2.8,8.3s.4,4.5,1.3,6.3c.9,1.7,2.1,3.1,3.5,4.1,1.5.9,3.2,1.4,5.2,1.4Z"/>
  <g>
    <path class="st0" d="M36,25.4v11.3h-8.2v-9.8c0-2.5-.9-3.4-2.2-3.4s-2.6,1-2.6,3.6v9.6h-8.2v-9.8c0-2.5-.8-3.4-2.2-3.4s-2.6,1-2.6,3.6v9.6H2v-19.7h7.8v1.8c1.5-1.5,3.4-2.2,5.6-2.2s4.8.9,6.2,3c1.6-1.9,3.9-3,6.6-3,4.5,0,7.9,2.6,7.9,8.8Z"/>
    <path class="st0" d="M61.1,17l-8.1,20.1c-2.2,5.4-5.3,7-9.5,7s-4.7-.7-6-1.8l2.7-5.6c.8.6,1.9,1,2.9,1s1.6-.3,2-.8l-8.3-20h8.4l4.1,10.6,4.1-10.6h7.7Z"/>
    <path class="st0" d="M96.4,25.4v11.3h-8.2v-9.8c0-2.5-.9-3.4-2.2-3.4s-2.6,1-2.6,3.6v9.6h-8.2v-9.8c0-2.5-.8-3.4-2.2-3.4s-2.6,1-2.6,3.6v9.6h-8.2v-19.7h7.8v1.8c1.5-1.5,3.4-2.2,5.6-2.2s4.8.9,6.2,3c1.6-1.9,3.9-3,6.6-3,4.5,0,7.9,2.6,7.9,8.8Z"/>
    <path class="st0" d="M132.5,9.9v26.8h-7.8v-1.6c-1.2,1.3-3,2-5.4,2-5.2,0-9.5-3.9-9.5-10.2s4.4-10.2,9.5-10.2,3.8.5,5,1.7v-8.4h8.2ZM124.5,26.8c0-2.6-1.4-3.9-3.2-3.9s-3.2,1.3-3.2,3.9,1.4,3.9,3.2,3.9,3.2-1.3,3.2-3.9Z"/>
    <path class="st0" d="M157,28.7h-13.7c.6,1.5,1.9,2.3,4,2.3s2.8-.5,4.1-1.4l4.3,4.3c-1.9,2.1-4.7,3.2-8.6,3.2-7.2,0-11.9-4.4-11.9-10.2s4.8-10.2,11.2-10.2,10.9,3.5,10.9,10.2,0,1.3-.1,1.9ZM143.2,24.8h6.3c-.3-1.7-1.5-2.6-3.2-2.6s-2.8,1-3.2,2.6Z"/>
    <path class="st0" d="M181.3,17l-7.9,19.7h-8.4l-7.9-19.7h8.4l4,10.6,4.3-10.6h7.7Z"/>
    <path class="st0" d="M202.9,28.7h-13.7c.6,1.5,1.9,2.3,4,2.3s2.8-.5,4.1-1.4l4.3,4.3c-1.9,2.1-4.7,3.2-8.6,3.2-7.2,0-11.9-4.4-11.9-10.2s4.8-10.2,11.2-10.2,10.9,3.5,10.9,10.2,0,1.3-.1,1.9ZM189.1,24.8h6.3c-.3-1.7-1.5-2.6-3.2-2.6s-2.8,1-3.2,2.6Z"/>
    <path class="st0" d="M205.6,9.9h8.2v26.8h-8.2V9.9Z"/>
    <path class="st0" d="M216.3,26.8c0-6,4.8-10.2,11.5-10.2s11.5,4.2,11.5,10.2-4.8,10.2-11.5,10.2-11.5-4.3-11.5-10.2ZM231,26.8c0-2.6-1.4-3.9-3.2-3.9s-3.2,1.3-3.2,3.9,1.4,3.9,3.2,3.9,3.2-1.3,3.2-3.9Z"/>
    <path class="st0" d="M264.5,26.9c0,6.3-4.4,10.2-9.5,10.2s-3.8-.5-5-1.7v8.3h-8.2v-26.7h7.8v1.6c1.2-1.3,3-2,5.4-2,5.2,0,9.5,3.9,9.5,10.2ZM256.2,26.9c0-2.6-1.4-3.9-3.2-3.9s-3.2,1.3-3.2,3.9,1.4,3.9,3.2,3.9,3.2-1.3,3.2-3.9Z"/>
    <path class="st0" d="M288,28.7h-13.7c.6,1.5,1.9,2.3,4,2.3s2.8-.5,4.1-1.4l4.3,4.3c-1.9,2.1-4.7,3.2-8.6,3.2-7.2,0-11.9-4.4-11.9-10.2s4.8-10.2,11.2-10.2,10.9,3.5,10.9,10.2,0,1.3-.1,1.9ZM274.1,24.8h6.3c-.3-1.7-1.5-2.6-3.2-2.6s-2.8,1-3.2,2.6Z"/>
    <path class="st0" d="M304.8,16.6v7.2c-.7-.1-1.2-.1-1.8-.1-2.5,0-4.2,1.1-4.2,4.3v8.8h-8.2v-19.7h7.8v2.1c1.4-1.7,3.6-2.5,6.4-2.5Z"/>
    <path class="st0" d="M305.9,35.1l2.2-5.4c1.9,1.1,4.5,1.8,6.9,1.8s2.5-.4,2.5-.9c0-2-11.4.7-11.4-7.2s3.5-6.7,10.1-6.7,6,.5,8,1.6l-2.2,5.4c-2-1.1-4-1.4-5.7-1.4s-2.7.5-2.7.9c0,2.1,11.3-.6,11.3,7.3s-3.4,6.7-10.2,6.7-6.9-.8-8.9-1.9Z"/>
  </g>
</svg>