<?xml version="1.0" encoding="UTF-8"?>
<svg id="Capa_1" xmlns="http://www.w3.org/2000/svg" version="1.1" viewBox="0 0 1920 386">
  <!-- Generator: Adobe Illustrator 29.7.1, SVG Export Plug-In . SVG Version: 2.1.1 Build 8)  -->
  <defs>
    <style>
      .st0 {
        fill: #fff;
      }
    </style>
  </defs>
  <path class="st0" d="M209.5,183.9v66.2h-48v-57.9c0-14.4-5.3-20-12.9-20s-15.1,5.7-15.1,21.2v56.7h-48v-57.9c0-14.4-4.9-20-12.9-20s-15.1,5.7-15.1,21.2v56.7H9.6v-116.1h45.6v10.8c8.7-8.7,20.2-12.9,32.9-12.9s28.2,5.5,36.3,17.6c9.3-11.3,22.9-17.6,38.8-17.6,26.3,0,46.3,15.5,46.3,52Z"/>
  <path class="st0" d="M357.5,134l-47.8,118.4c-12.7,31.8-31.4,41-56,41s-27.4-4-35.2-10.4l15.9-32.9c4.7,3.6,11.3,6.2,17,6.2s9.3-1.7,11.9-4.7l-48.8-117.6h49.2l24,62.2,24.4-62.2h45.4Z"/>
  <path class="st0" d="M564.9,183.9v66.2h-48v-57.9c0-14.4-5.3-20-12.9-20s-15.1,5.7-15.1,21.2v56.7h-48v-57.9c0-14.4-4.9-20-12.9-20s-15.1,5.7-15.1,21.2v56.7h-48v-116.1h45.6v10.8c8.7-8.7,20.2-12.9,32.9-12.9s28.2,5.5,36.3,17.6c9.3-11.3,22.9-17.6,38.8-17.6,26.3,0,46.3,15.5,46.3,52Z"/>
  <path class="st0" d="M777.8,92.6v157.5h-45.6v-9.6c-7,7.9-17.4,11.7-31.8,11.7-30.4,0-56-22.9-56-60.3s25.7-60.1,56-60.1,22.5,3.2,29.5,10v-49.2h48ZM730.7,191.9c0-15.1-8.3-22.7-18.9-22.7s-18.9,7.6-18.9,22.7,8.3,22.9,18.9,22.9,18.9-7.9,18.9-22.9Z"/>
  <path class="st0" d="M922,203.2h-80.7c3.4,8.9,11.5,13.6,23.3,13.6s16.6-2.8,24.2-8.5l25,25.3c-11.3,12.3-27.6,18.7-50.7,18.7-42.7,0-70.3-25.7-70.3-60.3s28.2-60.1,65.8-60.1,63.9,20.8,63.9,60.1-.4,7.9-.6,11.3ZM840.5,180.1h37.4c-1.9-9.8-8.9-15.5-18.7-15.5s-16.8,5.7-18.7,15.5Z"/>
  <path class="st0" d="M1064.9,134l-46.7,116.1h-49.7l-46.7-116.1h49.2l23.3,62.2,25-62.2h45.4Z"/>
  <path class="st0" d="M1192,203.2h-80.7c3.4,8.9,11.5,13.6,23.3,13.6s16.6-2.8,24.2-8.5l25,25.3c-11.3,12.3-27.6,18.7-50.7,18.7-42.7,0-70.3-25.7-70.3-60.3s28.2-60.1,65.8-60.1,63.9,20.8,63.9,60.1-.4,7.9-.6,11.3ZM1110.5,180.1h37.4c-1.9-9.8-8.9-15.5-18.7-15.5s-16.8,5.7-18.7,15.5Z"/>
  <path class="st0" d="M1207.8,92.6h48v157.5h-48V92.6Z"/>
  <path class="st0" d="M1270.8,191.9c0-35.2,28.2-60.1,67.5-60.1s67.5,24.8,67.5,60.1-28,60.3-67.5,60.3-67.5-25-67.5-60.3ZM1357.2,191.9c0-15.1-8.3-22.7-18.9-22.7s-18.9,7.6-18.9,22.7,8.3,22.9,18.9,22.9,18.9-7.9,18.9-22.9Z"/>
  <path class="st0" d="M1554.4,192.1c0,37.4-25.7,60.1-56,60.1s-22.5-3.2-29.5-10v49h-48v-157.3h45.6v9.6c7-7.9,17.4-11.7,31.8-11.7,30.3,0,56,22.9,56,60.3ZM1505.8,192.1c0-15.1-8.3-22.9-18.9-22.9s-18.9,7.9-18.9,22.9,8.3,22.7,18.9,22.7,18.9-7.6,18.9-22.7Z"/>
  <path class="st0" d="M1692.4,203.2h-80.7c3.4,8.9,11.5,13.6,23.3,13.6s16.6-2.8,24.2-8.5l25,25.3c-11.3,12.3-27.6,18.7-50.7,18.7-42.7,0-70.3-25.7-70.3-60.3s28.2-60.1,65.8-60.1,63.9,20.8,63.9,60.1-.4,7.9-.6,11.3ZM1610.9,180.1h37.4c-1.9-9.8-8.9-15.5-18.7-15.5s-16.8,5.7-18.7,15.5Z"/>
  <path class="st0" d="M1791.4,131.9v42.5c-4.2-.6-7.2-.9-10.6-.9-14.4,0-24.6,6.6-24.6,25v51.6h-48v-116.1h45.6v12.5c8.5-9.8,21.4-14.6,37.6-14.6Z"/>
  <path class="st0" d="M1797.7,240.8l13.2-31.6c11,6.6,26.7,10.4,40.5,10.4s14.9-2.1,14.9-5.5c0-11.9-66.9,4-66.9-42.5s20.4-39.7,59.4-39.7,35,3.2,47.3,9.6l-13.2,31.6c-11.9-6.6-23.8-8.5-33.5-8.5s-15.7,2.8-15.7,5.5c0,12.1,66.6-3.6,66.6,42.9s-19.7,39.3-60.1,39.3-40.8-4.7-52.6-11.5Z"/>
</svg>