<?xml version="1.0" encoding="UTF-8"?>
<svg id="Capa_1" xmlns="http://www.w3.org/2000/svg" version="1.1" viewBox="0 0 177 29">
  <!-- Generator: Adobe Illustrator 29.7.1, SVG Export Plug-In . SVG Version: 2.1.1 Build 8)  -->
  <defs>
    <style>
      .st0 {
        fill: #fff;
      }
    </style>
  </defs>
  <path class="st0" d="M22.3,13.7v5.8h-4.2v-5.1c0-1.3-.5-1.8-1.1-1.8s-1.3.5-1.3,1.9v5h-4.2v-5.1c0-1.3-.4-1.8-1.1-1.8s-1.3.5-1.3,1.9v5h-4.2v-10.2h4v1c.8-.8,1.8-1.1,2.9-1.1s2.5.5,3.2,1.6c.8-1,2-1.6,3.4-1.6,2.3,0,4.1,1.4,4.1,4.6Z"/>
  <path class="st0" d="M35.3,9.3l-4.2,10.5c-1.1,2.8-2.8,3.6-4.9,3.6s-2.4-.4-3.1-.9l1.4-2.9c.4.3,1,.5,1.5.5s.8-.2,1-.4l-4.3-10.4h4.3l2.1,5.5,2.2-5.5h4Z"/>
  <path class="st0" d="M53.6,13.7v5.8h-4.2v-5.1c0-1.3-.5-1.8-1.1-1.8s-1.3.5-1.3,1.9v5h-4.2v-5.1c0-1.3-.4-1.8-1.1-1.8s-1.3.5-1.3,1.9v5h-4.2v-10.2h4v1c.8-.8,1.8-1.1,2.9-1.1s2.5.5,3.2,1.6c.8-1,2-1.6,3.4-1.6,2.3,0,4.1,1.4,4.1,4.6Z"/>
  <path class="st0" d="M72.4,5.6v13.9h-4v-.8c-.6.7-1.5,1-2.8,1-2.7,0-4.9-2-4.9-5.3s2.3-5.3,4.9-5.3,2,.3,2.6.9v-4.3h4.2ZM68.3,14.4c0-1.3-.7-2-1.7-2s-1.7.7-1.7,2,.7,2,1.7,2,1.7-.7,1.7-2Z"/>
  <path class="st0" d="M85.1,15.4h-7.1c.3.8,1,1.2,2.1,1.2s1.5-.2,2.1-.7l2.2,2.2c-1,1.1-2.4,1.6-4.5,1.6-3.8,0-6.2-2.3-6.2-5.3s2.5-5.3,5.8-5.3,5.6,1.8,5.6,5.3,0,.7,0,1ZM78,13.4h3.3c-.2-.9-.8-1.4-1.6-1.4s-1.5.5-1.6,1.4Z"/>
  <path class="st0" d="M97.8,9.3l-4.1,10.2h-4.4l-4.1-10.2h4.3l2.1,5.5,2.2-5.5h4Z"/>
  <path class="st0" d="M109,15.4h-7.1c.3.8,1,1.2,2.1,1.2s1.5-.2,2.1-.7l2.2,2.2c-1,1.1-2.4,1.6-4.5,1.6-3.8,0-6.2-2.3-6.2-5.3s2.5-5.3,5.8-5.3,5.6,1.8,5.6,5.3,0,.7,0,1ZM101.8,13.4h3.3c-.2-.9-.8-1.4-1.6-1.4s-1.5.5-1.6,1.4Z"/>
  <path class="st0" d="M110.4,5.6h4.2v13.9h-4.2V5.6Z"/>
  <path class="st0" d="M115.9,14.4c0-3.1,2.5-5.3,6-5.3s6,2.2,6,5.3-2.5,5.3-6,5.3-6-2.2-6-5.3ZM123.5,14.4c0-1.3-.7-2-1.7-2s-1.7.7-1.7,2,.7,2,1.7,2,1.7-.7,1.7-2Z"/>
  <path class="st0" d="M140.9,14.4c0,3.3-2.3,5.3-4.9,5.3s-2-.3-2.6-.9v4.3h-4.2v-13.9h4v.8c.6-.7,1.5-1,2.8-1,2.7,0,4.9,2,4.9,5.3ZM136.7,14.4c0-1.3-.7-2-1.7-2s-1.7.7-1.7,2,.7,2,1.7,2,1.7-.7,1.7-2Z"/>
  <path class="st0" d="M153.1,15.4h-7.1c.3.8,1,1.2,2.1,1.2s1.5-.2,2.1-.7l2.2,2.2c-1,1.1-2.4,1.6-4.5,1.6-3.8,0-6.2-2.3-6.2-5.3s2.5-5.3,5.8-5.3,5.6,1.8,5.6,5.3,0,.7,0,1ZM145.9,13.4h3.3c-.2-.9-.8-1.4-1.6-1.4s-1.5.5-1.6,1.4Z"/>
  <path class="st0" d="M161.9,9.1v3.7c-.4,0-.6,0-.9,0-1.3,0-2.2.6-2.2,2.2v4.6h-4.2v-10.2h4v1.1c.7-.9,1.9-1.3,3.3-1.3Z"/>
  <path class="st0" d="M162.4,18.7l1.2-2.8c1,.6,2.4.9,3.6.9s1.3-.2,1.3-.5c0-1-5.9.4-5.9-3.7s1.8-3.5,5.2-3.5,3.1.3,4.2.8l-1.2,2.8c-1-.6-2.1-.7-3-.7s-1.4.2-1.4.5c0,1.1,5.9-.3,5.9,3.8s-1.7,3.5-5.3,3.5-3.6-.4-4.6-1Z"/>
</svg>