<svg width="490" height="169" viewBox="0 0 490 169" fill="none" xmlns="http://www.w3.org/2000/svg">
<g clip-path="url(#clip0_390_5)">
<path d="M393.42 69.8826L405.919 54.6753C405.919 54.6753 389.841 42.3389 369.105 42.3389C348.369 42.3389 325.474 59.678 333.91 87.9608H371.86C371.86 87.9608 358.027 85.8005 358.027 73.4641C358.027 61.1277 374.388 60.9003 374.388 60.9003C374.388 60.9003 383.279 60.1897 393.42 69.8541V69.8826Z" fill="#00B63F"/>
<path d="M342.886 130.03L327.15 143.787C327.15 143.787 341.438 168.375 374.587 164.68C395.181 162.377 412.85 147.71 409.782 119.058H381.234C381.234 119.058 385.041 121.36 383.649 133.497C382.03 147.539 365.128 146.26 365.128 146.26C365.128 146.26 354.504 147.34 342.886 129.973V130.03Z" fill="#00B63F"/>
<path d="M106.692 87.9607C112.544 72.6681 127.343 61.7814 144.699 61.7814C156.942 61.7814 167.907 67.2105 175.377 75.7664L193.614 57.5176C181.456 44.3001 164.044 36 144.699 36C112.998 36 86.4957 58.2283 79.8488 87.9607H106.692Z" fill="#0240AB"/>
<path d="M176.23 128.21C168.759 137.363 157.396 143.219 144.671 143.219C128.508 143.219 114.561 133.81 107.999 120.138H80.6156C88.342 148.307 114.106 169 144.699 169C164.555 169 182.337 160.274 194.523 146.488L176.258 128.21H176.23Z" fill="#0240AB"/>
<path d="M226.934 87.9607C232.786 72.6681 247.585 61.7814 264.941 61.7814C277.184 61.7814 288.148 67.2105 295.619 75.7664L313.856 57.5176C301.698 44.3001 284.285 36 264.941 36C233.24 36 206.737 58.2283 200.09 87.9607H226.934Z" fill="#0240AB"/>
<path d="M296.5 128.21C289.029 137.363 277.667 143.219 264.941 143.219C248.778 143.219 234.831 133.81 228.269 120.138H200.886C208.612 148.307 234.376 169 264.969 169C284.825 169 302.607 160.274 314.793 146.488L296.528 128.21H296.5Z" fill="#0240AB"/>
<path d="M13.0667 96.9429V99.8991C11.618 98.6768 10.1125 98.0799 8.57855 98.0799C6.8742 98.0799 5.45391 98.7052 4.26087 99.9275C3.09623 101.15 2.49971 102.628 2.49971 104.39C2.49971 106.153 3.09623 107.602 4.26087 108.796C5.42551 109.99 6.8742 110.587 8.57855 110.587C9.45913 110.587 10.1977 110.445 10.8226 110.16C11.1635 110.018 11.5328 109.819 11.902 109.592C12.2713 109.365 12.669 109.052 13.0667 108.711V111.724C11.6464 112.52 10.1409 112.946 8.55015 112.946C6.19246 112.946 4.14725 112.122 2.49971 110.473C0.823768 108.796 0 106.806 0 104.447C0 102.344 0.710145 100.439 2.10203 98.7905C3.80638 96.7723 6.05043 95.749 8.77739 95.749C10.2545 95.749 11.7032 96.147 13.0951 96.9713L13.0667 96.9429Z" fill="#0240AB"/>
<path d="M28.7183 108.625H21.6168L19.7704 112.662H17.0719L25.2812 95.0381L33.178 112.662H30.451L28.7183 108.625ZM27.6957 106.266L25.2244 100.638L22.6394 106.266H27.6673H27.6957Z" fill="#0240AB"/>
<path d="M37.0411 112.634L40.535 94.8115L46.2162 107.688L52.0962 94.8115L55.2208 112.634H52.6643L51.0736 102.628L46.1594 113.401L41.3872 102.628L39.5976 112.662H37.0127L37.0411 112.634Z" fill="#0240AB"/>
<path d="M70.844 108.625H63.7426L61.8962 112.662H59.1976L67.4069 95.0381L75.3037 112.662H72.5768L70.844 108.625ZM69.8214 106.266L67.3501 100.638L64.7652 106.266H69.793H69.8214Z" fill="#0240AB"/>
<path d="M85.3595 105.584L90.5009 112.662H87.4331L82.6893 105.868H82.2348V112.662H79.7351V96.0898H82.6609C84.8482 96.0898 86.4389 96.4878 87.4047 97.3121C88.4841 98.2217 89.0238 99.444 89.0238 100.951C89.0238 102.116 88.6829 103.139 88.0012 103.992C87.3195 104.845 86.4389 105.385 85.3311 105.612L85.3595 105.584ZM82.2348 103.679H83.0302C85.3879 103.679 86.5809 102.77 86.5809 100.951C86.5809 99.245 85.4163 98.3923 83.1154 98.3923H82.2348V103.651V103.679Z" fill="#0240AB"/>
<path d="M105.045 108.625H97.9432L96.0969 112.662H93.3983L101.608 95.0381L109.504 112.662H106.777L105.045 108.625ZM104.05 106.266L101.579 100.638L98.9942 106.266H104.022H104.05Z" fill="#0240AB"/>
<path d="M123.082 112.633V96.0615H126.548C128.224 96.0615 129.53 96.2321 130.496 96.5447C131.547 96.8574 132.485 97.4259 133.308 98.1934C135.013 99.7568 135.865 101.803 135.865 104.362C135.865 106.92 134.984 108.966 133.195 110.558C132.314 111.354 131.377 111.894 130.383 112.207C129.474 112.52 128.167 112.662 126.491 112.662H123.054L123.082 112.633ZM125.582 110.302H126.718C127.855 110.302 128.764 110.189 129.53 109.961C130.269 109.705 130.951 109.308 131.547 108.767C132.769 107.63 133.394 106.181 133.394 104.362C133.394 102.542 132.797 101.064 131.576 99.9273C130.468 98.904 128.877 98.4208 126.747 98.4208H125.61V110.302H125.582Z" fill="#0240AB"/>
<path d="M150.551 98.4207H143.904V102.4H150.352V104.759H143.904V110.302H150.551V112.662H141.404V96.0898H150.551V98.4491V98.4207Z" fill="#0240AB"/>
<path d="M177.565 96.9429V99.8991C176.116 98.6768 174.61 98.0799 173.076 98.0799C171.372 98.0799 169.952 98.7052 168.759 99.9275C167.594 101.15 166.998 102.628 166.998 104.39C166.998 106.153 167.594 107.602 168.759 108.796C169.923 109.99 171.372 110.587 173.076 110.587C173.957 110.587 174.696 110.445 175.321 110.16C175.661 110.018 176.031 109.819 176.4 109.592C176.769 109.336 177.167 109.052 177.565 108.711V111.724C176.144 112.52 174.639 112.946 173.048 112.946C170.69 112.946 168.645 112.122 166.998 110.473C165.322 108.796 164.498 106.806 164.498 104.447C164.498 102.344 165.208 100.439 166.6 98.7905C168.304 96.7723 170.548 95.749 173.275 95.749C174.752 95.749 176.201 96.147 177.593 96.9713L177.565 96.9429Z" fill="#0240AB"/>
<path d="M182.138 104.276C182.138 101.946 182.99 99.9275 184.694 98.2504C186.399 96.5733 188.444 95.749 190.83 95.749C193.216 95.749 195.205 96.6018 196.909 98.2788C198.613 99.9559 199.465 102.002 199.465 104.362C199.465 106.721 198.613 108.768 196.909 110.416C195.205 112.093 193.131 112.918 190.716 112.918C188.586 112.918 186.654 112.179 184.95 110.701C183.075 109.052 182.138 106.92 182.138 104.248V104.276ZM184.666 104.305C184.666 106.124 185.291 107.659 186.512 108.824C187.734 110.018 189.154 110.587 190.745 110.587C192.478 110.587 193.955 109.99 195.148 108.796C196.341 107.574 196.937 106.096 196.937 104.362C196.937 102.628 196.341 101.121 195.176 99.9275C194.012 98.7336 192.563 98.1367 190.83 98.1367C189.097 98.1367 187.649 98.7336 186.456 99.9275C185.263 101.121 184.666 102.571 184.666 104.333V104.305Z" fill="#0240AB"/>
<path d="M204.38 112.634L207.874 94.8115L213.555 107.688L219.435 94.8115L222.559 112.634H220.003L218.412 102.628L213.498 113.401L208.726 102.628L206.936 112.662H204.351L204.38 112.634Z" fill="#0240AB"/>
<path d="M237.586 98.4207H230.939V102.4H237.387V104.759H230.939V110.302H237.586V112.662H228.439V96.0898H237.586V98.4491V98.4207Z" fill="#0240AB"/>
<path d="M248.863 105.584L254.005 112.662H250.937L246.193 105.868H245.738V112.662H243.239V96.0898H246.165C248.352 96.0898 249.943 96.4878 250.908 97.3121C251.988 98.2217 252.527 99.444 252.527 100.951C252.527 102.116 252.187 103.139 251.505 103.992C250.823 104.845 249.943 105.385 248.835 105.612L248.863 105.584ZM245.738 103.679H246.534C248.892 103.679 250.085 102.77 250.085 100.951C250.085 99.245 248.92 98.3923 246.619 98.3923H245.738V103.651V103.679Z" fill="#0240AB"/>
<path d="M270.707 96.9429V99.8991C269.259 98.6768 267.753 98.0799 266.219 98.0799C264.515 98.0799 263.095 98.7052 261.901 99.9275C260.737 101.15 260.14 102.628 260.14 104.39C260.14 106.153 260.737 107.602 261.901 108.796C263.066 109.99 264.515 110.587 266.219 110.587C267.1 110.587 267.838 110.445 268.463 110.16C268.804 110.018 269.173 109.819 269.543 109.592C269.912 109.336 270.31 109.052 270.707 108.711V111.724C269.287 112.52 267.782 112.946 266.191 112.946C263.833 112.946 261.788 112.122 260.14 110.473C258.464 108.796 257.641 106.806 257.641 104.447C257.641 102.344 258.351 100.439 259.743 98.7905C261.447 96.7723 263.691 95.749 266.418 95.749C267.895 95.749 269.344 96.147 270.736 96.9713L270.707 96.9429Z" fill="#0240AB"/>
<path d="M278.718 96.0615V112.633H276.218V96.0615H278.718Z" fill="#0240AB"/>
<path d="M284.2 104.276C284.2 101.946 285.052 99.9275 286.756 98.2504C288.461 96.5733 290.506 95.749 292.892 95.749C295.278 95.749 297.267 96.6018 298.971 98.2788C300.675 99.9559 301.527 102.002 301.527 104.362C301.527 106.721 300.675 108.768 298.971 110.416C297.267 112.093 295.193 112.918 292.778 112.918C290.648 112.918 288.716 112.179 287.012 110.701C285.137 109.052 284.2 106.92 284.2 104.248V104.276ZM286.728 104.305C286.728 106.124 287.353 107.659 288.574 108.824C289.796 110.018 291.216 110.587 292.807 110.587C294.54 110.587 296.017 109.99 297.21 108.796C298.403 107.574 298.999 106.096 298.999 104.362C298.999 102.628 298.403 101.121 297.238 99.9275C296.074 98.7336 294.625 98.1367 292.892 98.1367C291.159 98.1367 289.711 98.7336 288.518 99.9275C287.325 101.121 286.728 102.571 286.728 104.333V104.305Z" fill="#0240AB"/>
<path d="M316.157 112.633V96.0615H319.622C321.298 96.0615 322.605 96.2321 323.571 96.5447C324.622 96.8574 325.559 97.4259 326.383 98.1934C328.087 99.7568 328.939 101.803 328.939 104.362C328.939 106.92 328.059 108.966 326.269 110.558C325.388 111.354 324.451 111.894 323.457 112.207C322.548 112.52 321.241 112.662 319.565 112.662H316.128L316.157 112.633ZM318.685 110.302H319.821C320.957 110.302 321.866 110.189 322.633 109.961C323.372 109.705 324.053 109.308 324.65 108.767C325.871 107.63 326.496 106.181 326.496 104.362C326.496 102.542 325.9 101.064 324.678 99.9273C323.57 98.904 321.98 98.4208 319.849 98.4208H318.713V110.302H318.685Z" fill="#0240AB"/>
<path d="M343.625 98.4207H336.978V102.4H343.426V104.759H336.978V110.302H343.625V112.662H334.478V96.0898H343.625V98.4491V98.4207Z" fill="#0240AB"/>
<path d="M367.77 98.5348L365.753 99.7286C365.384 99.0748 365.014 98.6485 364.674 98.4495C364.304 98.2221 363.85 98.1084 363.282 98.1084C362.6 98.1084 362.003 98.3074 361.549 98.7053C361.094 99.1033 360.867 99.5865 360.867 100.155C360.867 100.951 361.464 101.605 362.657 102.116L364.304 102.798C365.639 103.339 366.634 104.021 367.259 104.788C367.883 105.584 368.196 106.522 368.196 107.659C368.196 109.194 367.685 110.445 366.662 111.44C365.639 112.435 364.361 112.946 362.856 112.946C361.407 112.946 360.242 112.52 359.305 111.667C358.396 110.814 357.799 109.62 357.572 108.057L360.1 107.489C360.214 108.455 360.413 109.137 360.697 109.507C361.208 110.217 361.975 110.587 362.941 110.587C363.708 110.587 364.361 110.331 364.872 109.791C365.384 109.251 365.639 108.597 365.639 107.801C365.639 107.489 365.583 107.176 365.497 106.92C365.412 106.664 365.27 106.408 365.071 106.181C364.872 105.954 364.645 105.755 364.333 105.556C364.02 105.357 363.679 105.158 363.253 104.987L361.663 104.333C359.39 103.367 358.254 101.974 358.254 100.127C358.254 98.8759 358.737 97.8526 359.674 96.9998C360.64 96.1471 361.805 95.7207 363.225 95.7207C365.128 95.7207 366.634 96.6587 367.713 98.5063L367.77 98.5348Z" fill="#0240AB"/>
<path d="M383.137 108.626H376.036L374.19 112.662H371.491L379.359 95.7493C379.501 95.4651 379.899 95.4651 380.013 95.7493L387.597 112.634H384.87L383.137 108.597V108.626ZM382.115 106.267L379.643 100.638L377.059 106.267H382.086H382.115Z" fill="#0240AB"/>
<path d="M392.028 112.633V95.8341C392.028 95.493 392.426 95.3509 392.653 95.5783L404.101 107.574V96.0615H406.601V112.747C406.601 113.088 406.203 113.23 405.976 113.003L394.528 101.036V112.662H392.028V112.633Z" fill="#0240AB"/>
<path d="M417.508 98.4208V112.662H415.009V98.4208H411.202V96.0615H421.315V98.4208H417.508Z" fill="#0240AB"/>
<path d="M428.388 96.0615V112.633H425.888V96.0615H428.388Z" fill="#0240AB"/>
<path d="M444.465 108.625H437.364L435.518 112.662H432.819L441.028 95.0381L448.925 112.662H446.198L444.465 108.625ZM443.443 106.266L440.972 100.638L438.387 106.266H443.414H443.443Z" fill="#0240AB"/>
<path d="M461.14 104.021H467.985V104.561C467.985 105.811 467.843 106.92 467.559 107.858C467.275 108.739 466.792 109.564 466.111 110.359C464.577 112.093 462.617 112.946 460.231 112.946C457.845 112.946 455.913 112.122 454.265 110.445C452.618 108.768 451.794 106.749 451.794 104.39C451.794 102.031 452.646 99.9559 454.322 98.2788C455.998 96.6018 458.043 95.749 460.458 95.749C461.765 95.749 462.958 96.0048 464.094 96.5449C465.173 97.085 466.224 97.9377 467.247 99.1316L465.457 100.837C464.094 99.0179 462.446 98.1083 460.486 98.1083C458.725 98.1083 457.276 98.7052 456.083 99.9275C454.89 101.121 454.294 102.599 454.294 104.39C454.294 106.181 454.947 107.773 456.282 108.967C457.532 110.075 458.867 110.644 460.316 110.644C461.537 110.644 462.645 110.217 463.639 109.393C464.634 108.569 465.173 107.545 465.287 106.38H461.168V104.021H461.14Z" fill="#0240AB"/>
<path d="M472.672 104.276C472.672 101.946 473.525 99.9275 475.229 98.2504C476.933 96.5733 478.979 95.749 481.365 95.749C483.751 95.749 485.739 96.6018 487.444 98.2788C489.148 99.9559 490 102.002 490 104.362C490 106.721 489.148 108.768 487.444 110.416C485.739 112.093 483.666 112.918 481.251 112.918C479.121 112.918 477.189 112.179 475.485 110.701C473.61 109.052 472.672 106.92 472.672 104.248V104.276ZM475.172 104.305C475.172 106.124 475.797 107.659 477.019 108.824C478.24 110.018 479.66 110.587 481.251 110.587C482.984 110.587 484.461 109.99 485.654 108.796C486.847 107.574 487.444 106.096 487.444 104.362C487.444 102.628 486.847 101.121 485.682 99.9275C484.518 98.7336 483.069 98.1367 481.336 98.1367C479.604 98.1367 478.155 98.7336 476.962 99.9275C475.769 101.121 475.172 102.571 475.172 104.333V104.305Z" fill="#0240AB"/>
</g>
<path d="M193.796 6.22V7.924H196.544V9.508H193.796V11.356H196.904V13H191.744V4.576H196.904V6.22H193.796ZM208.376 4.576V13H206.324V7.948L204.44 13H202.784L200.888 7.936V13H198.836V4.576H201.26L203.624 10.408L205.964 4.576H208.376ZM216.872 7.288C216.872 7.776 216.76 8.224 216.536 8.632C216.312 9.032 215.968 9.356 215.504 9.604C215.04 9.852 214.464 9.976 213.776 9.976H212.504V13H210.452V4.576H213.776C214.448 4.576 215.016 4.692 215.48 4.924C215.944 5.156 216.292 5.476 216.524 5.884C216.756 6.292 216.872 6.76 216.872 7.288ZM213.62 8.344C214.012 8.344 214.304 8.252 214.496 8.068C214.688 7.884 214.784 7.624 214.784 7.288C214.784 6.952 214.688 6.692 214.496 6.508C214.304 6.324 214.012 6.232 213.62 6.232H212.504V8.344H213.62ZM222.836 13L221.084 9.82H220.592V13H218.54V4.576H221.984C222.648 4.576 223.212 4.692 223.676 4.924C224.148 5.156 224.5 5.476 224.732 5.884C224.964 6.284 225.08 6.732 225.08 7.228C225.08 7.788 224.92 8.288 224.6 8.728C224.288 9.168 223.824 9.48 223.208 9.664L225.152 13H222.836ZM220.592 8.368H221.864C222.24 8.368 222.52 8.276 222.704 8.092C222.896 7.908 222.992 7.648 222.992 7.312C222.992 6.992 222.896 6.74 222.704 6.556C222.52 6.372 222.24 6.28 221.864 6.28H220.592V8.368ZM229.02 6.22V7.924H231.768V9.508H229.02V11.356H232.128V13H226.968V4.576H232.128V6.22H229.02ZM237.108 13.084C236.492 13.084 235.94 12.984 235.452 12.784C234.964 12.584 234.572 12.288 234.276 11.896C233.988 11.504 233.836 11.032 233.82 10.48H236.004C236.036 10.792 236.144 11.032 236.328 11.2C236.512 11.36 236.752 11.44 237.048 11.44C237.352 11.44 237.592 11.372 237.768 11.236C237.944 11.092 238.032 10.896 238.032 10.648C238.032 10.44 237.96 10.268 237.816 10.132C237.68 9.996 237.508 9.884 237.3 9.796C237.1 9.708 236.812 9.608 236.436 9.496C235.892 9.328 235.448 9.16 235.104 8.992C234.76 8.824 234.464 8.576 234.216 8.248C233.968 7.92 233.844 7.492 233.844 6.964C233.844 6.18 234.128 5.568 234.696 5.128C235.264 4.68 236.004 4.456 236.916 4.456C237.844 4.456 238.592 4.68 239.16 5.128C239.728 5.568 240.032 6.184 240.072 6.976H237.852C237.836 6.704 237.736 6.492 237.552 6.34C237.368 6.18 237.132 6.1 236.844 6.1C236.596 6.1 236.396 6.168 236.244 6.304C236.092 6.432 236.016 6.62 236.016 6.868C236.016 7.14 236.144 7.352 236.4 7.504C236.656 7.656 237.056 7.82 237.6 7.996C238.144 8.18 238.584 8.356 238.92 8.524C239.264 8.692 239.56 8.936 239.808 9.256C240.056 9.576 240.18 9.988 240.18 10.492C240.18 10.972 240.056 11.408 239.808 11.8C239.568 12.192 239.216 12.504 238.752 12.736C238.288 12.968 237.74 13.084 237.108 13.084ZM247.287 11.512H244.143L243.639 13H241.491L244.539 4.576H246.915L249.963 13H247.791L247.287 11.512ZM246.759 9.928L245.715 6.844L244.683 9.928H246.759ZM257.682 13.084C257.066 13.084 256.514 12.984 256.026 12.784C255.538 12.584 255.146 12.288 254.85 11.896C254.562 11.504 254.41 11.032 254.394 10.48H256.578C256.61 10.792 256.718 11.032 256.902 11.2C257.086 11.36 257.326 11.44 257.622 11.44C257.926 11.44 258.166 11.372 258.342 11.236C258.518 11.092 258.606 10.896 258.606 10.648C258.606 10.44 258.534 10.268 258.39 10.132C258.254 9.996 258.082 9.884 257.874 9.796C257.674 9.708 257.386 9.608 257.01 9.496C256.466 9.328 256.022 9.16 255.678 8.992C255.334 8.824 255.038 8.576 254.79 8.248C254.542 7.92 254.418 7.492 254.418 6.964C254.418 6.18 254.702 5.568 255.27 5.128C255.838 4.68 256.578 4.456 257.49 4.456C258.418 4.456 259.166 4.68 259.734 5.128C260.302 5.568 260.606 6.184 260.646 6.976H258.426C258.41 6.704 258.31 6.492 258.126 6.34C257.942 6.18 257.706 6.1 257.418 6.1C257.17 6.1 256.97 6.168 256.818 6.304C256.666 6.432 256.59 6.62 256.59 6.868C256.59 7.14 256.718 7.352 256.974 7.504C257.23 7.656 257.63 7.82 258.174 7.996C258.718 8.18 259.158 8.356 259.494 8.524C259.838 8.692 260.134 8.936 260.382 9.256C260.63 9.576 260.754 9.988 260.754 10.492C260.754 10.972 260.63 11.408 260.382 11.8C260.142 12.192 259.79 12.504 259.326 12.736C258.862 12.968 258.314 13.084 257.682 13.084ZM266.601 13.084C265.809 13.084 265.081 12.9 264.417 12.532C263.761 12.164 263.237 11.652 262.845 10.996C262.461 10.332 262.269 9.588 262.269 8.764C262.269 7.94 262.461 7.2 262.845 6.544C263.237 5.888 263.761 5.376 264.417 5.008C265.081 4.64 265.809 4.456 266.601 4.456C267.393 4.456 268.117 4.64 268.773 5.008C269.437 5.376 269.957 5.888 270.333 6.544C270.717 7.2 270.909 7.94 270.909 8.764C270.909 9.588 270.717 10.332 270.333 10.996C269.949 11.652 269.429 12.164 268.773 12.532C268.117 12.9 267.393 13.084 266.601 13.084ZM266.601 11.212C267.273 11.212 267.809 10.988 268.209 10.54C268.617 10.092 268.821 9.5 268.821 8.764C268.821 8.02 268.617 7.428 268.209 6.988C267.809 6.54 267.273 6.316 266.601 6.316C265.921 6.316 265.377 6.536 264.969 6.976C264.569 7.416 264.369 8.012 264.369 8.764C264.369 9.508 264.569 10.104 264.969 10.552C265.377 10.992 265.921 11.212 266.601 11.212ZM272.302 8.776C272.302 7.944 272.482 7.204 272.842 6.556C273.202 5.9 273.702 5.392 274.342 5.032C274.99 4.664 275.722 4.48 276.538 4.48C277.538 4.48 278.394 4.744 279.106 5.272C279.818 5.8 280.294 6.52 280.534 7.432H278.278C278.11 7.08 277.87 6.812 277.558 6.628C277.254 6.444 276.906 6.352 276.514 6.352C275.882 6.352 275.37 6.572 274.978 7.012C274.586 7.452 274.39 8.04 274.39 8.776C274.39 9.512 274.586 10.1 274.978 10.54C275.37 10.98 275.882 11.2 276.514 11.2C276.906 11.2 277.254 11.108 277.558 10.924C277.87 10.74 278.11 10.472 278.278 10.12H280.534C280.294 11.032 279.818 11.752 279.106 12.28C278.394 12.8 277.538 13.06 276.538 13.06C275.722 13.06 274.99 12.88 274.342 12.52C273.702 12.152 273.202 11.644 272.842 10.996C272.482 10.348 272.302 9.608 272.302 8.776ZM284.443 4.576V13H282.391V4.576H284.443ZM291.774 11.512H288.63L288.126 13H285.978L289.026 4.576H291.402L294.45 13H292.278L291.774 11.512ZM291.246 9.928L290.202 6.844L289.17 9.928H291.246ZM296.938 13.096C296.578 13.096 296.282 12.992 296.05 12.784C295.826 12.568 295.714 12.304 295.714 11.992C295.714 11.672 295.826 11.404 296.05 11.188C296.282 10.972 296.578 10.864 296.938 10.864C297.29 10.864 297.578 10.972 297.802 11.188C298.034 11.404 298.15 11.672 298.15 11.992C298.15 12.304 298.034 12.568 297.802 12.784C297.578 12.992 297.29 13.096 296.938 13.096ZM296.938 8.212C296.578 8.212 296.282 8.108 296.05 7.9C295.826 7.684 295.714 7.42 295.714 7.108C295.714 6.788 295.826 6.52 296.05 6.304C296.282 6.088 296.578 5.98 296.938 5.98C297.29 5.98 297.578 6.088 297.802 6.304C298.034 6.52 298.15 6.788 298.15 7.108C298.15 7.42 298.034 7.684 297.802 7.9C297.578 8.108 297.29 8.212 296.938 8.212Z" fill="#0041B2"/>
<defs>
<clipPath id="clip0_390_5">
<rect width="490" height="133" fill="white" transform="translate(0 36)"/>
</clipPath>
</defs>
</svg>
