<svg width="500" height="285" viewBox="0 0 500 285" fill="none" xmlns="http://www.w3.org/2000/svg">
<g clip-path="url(#clip0_136_8)">
<g clip-path="url(#clip1_136_8)">
<path d="M59.6998 198.05V168.994H32.6485V141.438H5V226.432H87.3483V198.05H59.6998Z" fill="#999797"/>
<path d="M59.6998 112.383H32.6485V141.439H59.6998V112.383Z" fill="#AC2C1E"/>
<path d="M116.311 168.994H87.3483V198.05H116.311V168.994Z" fill="#AC2C1E"/>
<path d="M171.064 155.747V115.522C171.064 109.107 176.282 103.886 182.697 103.886H189.085C195.5 103.886 200.718 109.107 200.718 115.522V123.435H191.084V118.714C191.084 115.855 188.755 113.527 185.889 113.527C183.024 113.527 180.699 115.855 180.699 118.714V152.557C180.699 155.423 183.027 157.752 185.889 157.752C188.752 157.752 191.084 155.423 191.084 152.557V147.84H200.718V155.75C200.718 162.165 195.5 167.383 189.085 167.383H182.697C176.282 167.383 171.064 162.165 171.064 155.75V155.747Z" fill="#999797"/>
<path d="M239.815 113.497V157.768C239.815 163.069 235.505 167.379 230.204 167.379H219.769C214.472 167.379 210.159 163.069 210.159 157.768V113.497C210.159 108.196 214.469 103.886 219.769 103.886H230.204C235.505 103.886 239.815 108.196 239.815 113.497ZM230.181 116.693C230.181 114.944 228.76 113.523 227.012 113.523H222.965C221.217 113.523 219.796 114.944 219.796 116.693V154.576C219.796 156.32 221.217 157.745 222.965 157.745H227.012C228.76 157.745 230.181 156.324 230.181 154.576V116.693Z" fill="#999797"/>
<path d="M260.532 167.379H250.897V103.886H263.854L271.394 139.597L278.936 103.886H292.033V167.379H282.399V133.122L275.163 167.379H267.624L260.528 133.789V167.379H260.532Z" fill="#999797"/>
<path d="M312.212 167.379C306.912 167.379 302.602 163.069 302.602 157.768V150.205H312.236V154.575C312.236 156.323 313.657 157.745 315.405 157.745H319.411C321.159 157.745 322.581 156.323 322.581 154.575V143.547C322.581 141.799 321.159 140.377 319.411 140.377H312.212C306.915 140.377 302.602 136.067 302.602 130.77V113.5C302.602 108.199 306.912 103.889 312.212 103.889H322.607C327.908 103.889 332.218 108.199 332.218 113.5V121.062H322.584V116.695C322.584 114.947 321.163 113.526 319.415 113.526H315.408C313.66 113.526 312.239 114.947 312.239 116.695V127.597C312.239 129.345 313.66 130.767 315.408 130.767H322.607C327.908 130.767 332.218 135.077 332.218 140.374V157.771C332.218 163.072 327.908 167.382 322.607 167.382H312.212V167.379Z" fill="#999797"/>
<path d="M349.345 167.379H339.707L353.118 103.886H365.665L379.079 167.379H369.438L366.979 155.733H351.807L349.345 167.379ZM353.839 146.099H364.944L359.393 119.815L353.839 146.099Z" fill="#999797"/>
<path d="M417.035 167.379H387.422V103.886H397.056V157.748H417.035V167.383V167.379Z" fill="#999797"/>
<path d="M424.524 157.768V103.886H434.159V157.748H444.543V103.886H454.178V157.768C454.178 163.069 449.868 167.379 444.567 167.379H434.132C428.834 167.379 424.524 163.069 424.524 157.768Z" fill="#999797"/>
<path d="M485.392 167.379H465.347V103.886H485.392C490.69 103.886 495.003 108.196 495.003 113.497V157.768C495.003 163.069 490.693 167.379 485.392 167.379ZM485.366 116.693C485.366 114.944 483.945 113.523 482.197 113.523H474.981V157.748H482.197C483.945 157.748 485.366 156.327 485.366 154.579V116.696V116.693Z" fill="#999797"/>
<path d="M175.268 209.539V192.081C175.268 189.299 177.533 187.034 180.315 187.034H183.087C185.873 187.034 188.134 189.299 188.134 192.081V196.208H183.955V193.466C183.955 192.225 182.944 191.214 181.699 191.214C180.455 191.214 179.448 192.225 179.448 193.466V208.151C179.448 209.395 180.458 210.403 181.699 210.403C182.94 210.403 183.955 209.385 183.955 208.134V203.634H181.376V199.454H188.134V209.535C188.134 212.317 185.873 214.583 183.087 214.583H180.315C177.533 214.583 175.268 212.317 175.268 209.535V209.539Z" fill="#5F605F"/>
<path d="M202.553 214.559L198.376 214.546L198.466 187.034L205.768 187.061C208.511 187.068 210.862 189.129 211.239 191.855L211.259 192.011C211.276 192.158 211.286 192.308 211.293 192.482C211.296 192.532 211.299 192.575 211.299 192.625V192.882L211.289 195.824C211.286 197.049 210.889 198.21 210.142 199.18L209.968 199.404L210.159 199.611C210.862 200.381 211.253 201.386 211.249 202.436L211.209 214.593L207.049 214.579L207.089 202.737C207.089 202.37 206.946 202.026 206.689 201.762C206.429 201.502 206.085 201.359 205.718 201.359L202.593 201.345L202.549 214.563L202.553 214.559ZM202.606 197.162L205.498 197.176H205.782C206.139 197.169 206.439 197.039 206.706 196.775C206.966 196.515 207.113 196.175 207.113 195.804L207.123 192.609C207.123 192.242 206.979 191.898 206.723 191.638C206.466 191.378 206.122 191.234 205.752 191.231L202.629 191.221L202.609 197.162H202.606Z" fill="#5F605F"/>
<path d="M234.451 214.586H221.601V187.034H234.451V191.217H225.781V198.7H232.196V202.883H225.781V210.409H234.451V214.589V214.586Z" fill="#5F605F"/>
<path d="M248.262 214.586H244.082V187.034H249.703L252.976 202.53L256.248 187.034H261.933V214.586H257.753V199.721L254.614 214.586H251.344L248.265 200.011V214.586H248.262Z" fill="#5F605F"/>
<path d="M272.464 214.586V187.034H276.644V214.586H272.464Z" fill="#5F605F"/>
<path d="M299.899 191.204V210.416C299.899 212.714 298.028 214.586 295.729 214.586H291.203C288.904 214.586 287.033 212.714 287.033 210.416V191.204C287.033 188.906 288.904 187.034 291.203 187.034H295.729C298.028 187.034 299.899 188.902 299.899 191.204ZM295.716 192.592C295.716 191.835 295.099 191.217 294.342 191.217H292.587C291.83 191.217 291.213 191.835 291.213 192.592V209.028C291.213 209.785 291.83 210.403 292.587 210.403H294.342C295.099 210.403 295.716 209.785 295.716 209.028V192.592Z" fill="#5F605F"/>
<path d="M335.254 214.586H326.557V187.034H335.254C337.552 187.034 339.424 188.906 339.424 191.204V210.416C339.424 212.714 337.552 214.586 335.254 214.586ZM335.244 192.592C335.244 191.835 334.627 191.217 333.87 191.217H330.74V210.406H333.87C334.627 210.406 335.244 209.789 335.244 209.032V192.595V192.592Z" fill="#5F605F"/>
<path d="M362.672 214.586H349.822V187.034H362.672V191.217H354.002V198.7H360.417V202.883H354.002V210.409H362.672V214.589V214.586Z" fill="#5F605F"/>
<path d="M392.376 214.586C390.077 214.586 388.206 212.715 388.206 210.416V207.134H392.386V209.029C392.386 209.786 393.003 210.403 393.76 210.403H395.498C396.255 210.403 396.873 209.786 396.873 209.029V204.241C396.873 203.484 396.255 202.867 395.498 202.867H392.376C390.077 202.867 388.206 200.996 388.206 198.697V191.201C388.206 188.903 390.077 187.031 392.376 187.031H396.886C399.184 187.031 401.056 188.903 401.056 191.201V194.484H396.876V192.589C396.876 191.832 396.259 191.215 395.501 191.215H393.763C393.006 191.215 392.389 191.832 392.389 192.589V197.319C392.389 198.077 393.006 198.694 393.763 198.694H396.886C399.184 198.694 401.056 200.562 401.056 202.864V210.413C401.056 212.712 399.188 214.583 396.886 214.583H392.376V214.586Z" fill="#5F605F"/>
<path d="M414.079 214.586H409.896L415.717 187.034H421.162L426.98 214.586H422.796L421.729 209.532H415.144L414.076 214.586H414.079ZM416.028 205.352H420.845L418.436 193.946L416.024 205.352H416.028Z" fill="#5F605F"/>
<path d="M449.044 214.586H436.194V187.034H440.374V210.406H449.044V214.586Z" fill="#5F605F"/>
<path d="M457.887 210.416V187.034H462.067V210.406H466.571V187.034H470.754V210.416C470.754 212.714 468.883 214.586 466.584 214.586H462.057C459.759 214.586 457.887 212.714 457.887 210.416Z" fill="#5F605F"/>
<path d="M489.886 214.586H481.189V187.034H489.886C492.184 187.034 494.056 188.906 494.056 191.204V210.416C494.056 212.714 492.184 214.586 489.886 214.586ZM489.876 192.592C489.876 191.835 489.259 191.217 488.502 191.217H485.372V210.406H488.502C489.259 210.406 489.876 209.789 489.876 209.032V192.595V192.592Z" fill="#5F605F"/>
<path d="M59.6998 84V112.382H88.2557V141.439H116.308V168.994H142.045V84H59.6998Z" fill="#725741"/>
</g>
</g>
<defs>
<clipPath id="clip0_136_8">
<rect width="500" height="285" fill="white"/>
</clipPath>
<clipPath id="clip1_136_8">
<rect width="490" height="142.432" fill="white" transform="translate(5 84)"/>
</clipPath>
</defs>
</svg>
