<svg width="632" height="171" viewBox="0 0 632 171" fill="none" xmlns="http://www.w3.org/2000/svg">
<path d="M80.9158 96.3944C75.4942 98.8298 67.2215 100.449 55.7005 100.449C21.8268 100.449 0 80.9899 0 49.6331C0 22.0634 21.4179 3 53.3986 3C64.1017 3 70.7502 4.08368 77.796 5.70337L79.0112 19.7562C69.6635 15.0253 60.4444 12.1821 53.3986 12.1821C32.3897 12.1821 16.3935 25.2911 16.3935 49.4816C16.3935 77.599 34.2826 90.8478 55.7005 90.8478C67.8992 90.8478 76.9781 88.1445 86.6062 79.4984L80.9158 96.3944Z" fill="#0574BA"/>
<path d="M169.836 96.3944C164.414 98.8298 156.141 100.449 144.62 100.449C110.735 100.449 88.9197 80.9899 88.9197 49.6215C88.9197 22.0634 110.326 3 142.318 3C153.021 3 159.67 4.08368 166.716 5.70337L167.931 19.7562C158.583 15.0253 149.364 12.1821 142.318 12.1821C121.309 12.1821 105.313 25.2911 105.313 49.4816C105.313 77.599 123.202 90.8478 144.62 90.8478C156.819 90.8478 165.898 88.1445 175.526 79.4984L169.836 96.3944Z" fill="#0574BA"/>
<path d="M240.586 98.4222H181.894C183.39 96.9307 184.196 95.1828 184.196 91.1277V12.0542C184.196 7.99915 183.378 6.23963 181.894 4.75977H202.634C201.139 6.25128 200.332 7.99915 200.332 12.0542V89.2284H226.494C236.391 89.2284 238.553 88.8206 244.792 85.1733L240.586 98.4222Z" fill="#0574BA"/>
<path d="M46.8907 167.637C46.8907 168.776 46.6904 169.003 45.9072 169.441C44.4319 170.334 41.627 171 39.1318 171C31.3547 171 26 164.712 26 155.5C26 146.288 31.3547 140 39.3322 140C42.0277 140 44.6869 140.858 45.6704 141.331C46.2168 141.611 46.3079 141.804 46.3625 142.995C46.4536 143.853 46.5082 145.254 46.5082 147.163C46.5082 148.775 46.3625 148.967 45.8708 148.967C45.1786 148.967 44.9419 148.267 44.1587 146.27C43.0295 143.293 41.4085 141.401 38.8404 141.401C34.9609 141.401 31.464 145.657 31.464 155.062C31.464 165.606 35.3981 169.669 39.2775 169.669C42.4649 169.669 43.9037 166.972 44.6869 164.047C45.2697 161.875 45.4701 160.877 46.1075 160.877C46.6904 160.877 47 161.069 47 162.243L46.9089 167.672L46.8907 167.637Z" fill="#0574BA"/>
<path d="M55.5312 159.596C54.7656 159.596 54.5163 159.684 54.0356 161.579C53.1276 165.123 52.6825 166.368 52.6825 167.158C52.6825 168.018 53.3056 168.439 54.4095 168.632C55.2285 168.772 55.8516 168.825 55.8516 169.386C55.8516 169.912 55.4599 170 54.9436 170C54.1246 170 52.8783 169.807 51.8279 169.807C50.5816 169.807 49.1395 170 48.7122 170C48.2849 170 48 169.807 48 169.386C48 168.912 48.4273 168.772 48.8724 168.684C49.5846 168.544 50.2256 168.351 50.6529 167.018C52.914 160.193 55.46 151.053 57.7745 142.632C57.9169 142.018 58.1128 141.404 58.2552 140.825C58.3976 140.105 58.6469 139.544 59.6439 139.544C60.5519 139.544 60.7478 139.877 60.9971 140.632C63.543 148.965 66.3739 158.105 68.9733 166.386C69.3116 167.474 69.8457 168.474 70.6469 168.667C71.2166 168.86 72 168.947 72 169.474C72 169.895 71.5193 170 70.8427 170C69.543 170 68.2967 169.807 66.908 169.807C65.5193 169.807 63.9703 170 62.8309 170C62.1543 170 61.7804 169.86 61.7804 169.386C61.7804 168.86 62.3501 168.684 63.0267 168.632C63.7389 168.579 64.5222 168.439 64.5222 167.456C64.5222 166.842 63.8457 165.035 62.9377 161.684C62.4036 159.842 62.2611 159.596 61.2641 159.596H55.5846H55.5312ZM60.5875 158.175C61.4599 158.175 61.549 157.982 61.549 157.754C61.549 157.526 61.4599 157.14 61.3531 156.719C60.819 155.053 59.9644 152.456 58.9495 148.807C58.7181 147.912 58.5222 147.579 58.2374 147.579C57.9525 147.579 57.8101 147.912 57.4718 149.281C56.5638 152.789 55.9407 154.965 55.4956 156.439C55.2463 157.386 55.2107 157.719 55.2107 157.86C55.2107 158.053 55.2997 158.193 56.0831 158.193H60.6054L60.5875 158.175ZM56.2967 138C56.1009 138 55.905 137.807 55.905 137.579C55.905 137.193 56.5816 136.772 56.8131 136.491L62.3324 131.614C63.1514 130.86 64.0593 130 65.0742 130C65.9466 130 66.5163 130.614 66.5163 131.421C66.5163 132.456 65.4125 133.123 64.3086 133.737L57.9703 137.281C57.2938 137.667 56.6706 138 56.3323 138H56.2789H56.2967Z" fill="#0574BA"/>
<path d="M90.8868 169.351C90.8868 168.789 91.4185 168.632 92.6592 168.491C94.1835 168.351 94.2899 167.684 94.2899 165.509C94.2899 160.386 93.9531 151.018 93.7582 145.947C93.705 145.246 93.705 145 93.51 145C93.315 145 93.2796 145.281 93.0846 145.719C92.1807 148.088 90.6918 152.737 87.0052 164.368C85.6581 168.772 85.8176 169.667 84.8959 169.667C84.3288 169.667 84.1692 169.281 83.7084 167.298C82.1309 161.421 78.4443 149.439 77.2567 145.754C77.1149 145.333 77.0086 145.088 76.7782 145.088C76.5832 145.088 76.5832 145.474 76.4946 146.123C76.1578 150.579 75.8742 158.193 75.8742 162.316C75.8742 165.439 75.821 168.228 77.4517 168.474C78.3202 168.614 79.5609 168.667 79.5609 169.333C79.5609 169.719 79.2773 170 78.6038 170C77.6467 170 76.8845 169.807 75.0589 169.807C73.3928 169.807 72.4357 170 71.7621 170C71.2836 170 71 169.912 71 169.333C71 168.614 71.709 168.719 72.5243 168.526C73.9068 168.246 74.1018 167.158 74.2435 164.825C74.5271 159.754 75.0589 148.667 75.0589 144.737C75.1121 142.175 75.0589 141.702 73.4282 141.474C72.6129 141.386 71.8507 141.281 71.8507 140.719C71.8507 140.053 72.4711 140 73.1446 140C74.1549 140 75.4843 140.14 76.5478 140.14C77.3631 140.14 78.6038 140 79.3659 140C79.8977 140 80.0749 140.14 80.3231 140.86C82.0955 146.632 83.8679 152.421 85.5872 158.14C85.9771 159.509 86.2607 160.596 86.5975 160.596C86.8811 160.596 87.1292 159.93 87.5546 158.561C89.3802 152.789 91.1881 147 93.0137 141.281C93.2973 140.386 93.5809 140 94.1127 140C94.8216 140 96.0269 140.14 96.9308 140.14C97.888 140.14 99.2704 140 100.281 140C100.812 140 101.291 140.193 101.291 140.667C101.291 141.281 100.671 141.421 99.2882 141.526C98.4197 141.614 98.1893 142.228 98.1893 144.368C98.1893 149.053 98.7564 160.14 98.8982 165.965C98.8982 167.719 99.3236 168.386 100.281 168.474C101.468 168.754 102 168.86 102 169.368C102 169.877 101.575 169.982 100.901 169.982C99.8908 169.982 98.7565 169.789 96.5409 169.789C94.6267 169.789 93.0492 169.982 92.0035 169.982C91.3831 169.982 90.9045 169.789 90.9045 169.368V169.316L90.8868 169.351Z" fill="#0574BA"/>
<path d="M109.531 159.752C108.766 159.752 108.516 159.839 108.036 161.705C107.128 165.196 106.682 166.423 106.682 167.2C106.682 168.047 107.306 168.462 108.41 168.652C109.228 168.79 109.852 168.842 109.852 169.395C109.852 169.914 109.46 170 108.944 170C108.125 170 106.878 169.81 105.828 169.81C104.582 169.81 103.14 170 102.712 170C102.285 170 102 169.81 102 169.395C102 168.929 102.427 168.79 102.872 168.704C103.585 168.566 104.226 168.376 104.653 167.062C106.914 160.34 109.46 151.336 111.775 143.041C111.917 142.437 112.113 141.832 112.255 141.262C112.398 140.553 112.647 140 113.644 140C114.552 140 114.748 140.328 114.997 141.071C117.543 149.28 120.374 158.283 122.973 166.44C123.312 167.512 123.846 168.497 124.647 168.687C125.217 168.877 126 168.963 126 169.482C126 169.896 125.519 170 124.843 170C123.543 170 122.297 169.81 120.908 169.81C119.519 169.81 117.97 170 116.831 170C116.154 170 115.78 169.862 115.78 169.395C115.78 168.877 116.35 168.704 117.027 168.652C117.739 168.6 118.522 168.462 118.522 167.494C118.522 166.889 117.846 165.109 116.938 161.809C116.404 159.994 116.261 159.752 115.264 159.752H109.585H109.531ZM114.57 158.353C115.442 158.353 115.531 158.162 115.531 157.938C115.531 157.713 115.442 157.333 115.335 156.918C114.801 155.276 113.947 152.719 112.932 149.124C112.7 148.243 112.504 147.915 112.22 147.915C111.935 147.915 111.792 148.243 111.454 149.591C110.546 153.047 109.923 155.19 109.478 156.642C109.229 157.575 109.193 157.903 109.193 158.041C109.193 158.232 109.282 158.37 110.065 158.37H114.588L114.57 158.353Z" fill="#0574BA"/>
<path d="M134.115 166.068C134.115 167.578 134.398 168.297 135.777 168.525C136.962 168.754 137.634 168.806 137.634 169.386C137.634 169.86 137.245 170 136.537 170C135.671 170 134.681 169.807 131.958 169.807C129.094 169.807 128.228 170 127.185 170C126.46 170 126 169.912 126 169.386C126 168.771 126.566 168.771 127.998 168.525C129.236 168.385 129.518 167.806 129.518 165.875V144.178C129.518 142.282 129.324 141.668 127.998 141.475C127.096 141.281 126.177 141.387 126.177 140.72C126.177 140.193 126.566 140 127.326 140C128.811 140 130.137 140.193 131.852 140.193C134.098 140.193 136.06 140 138.252 140C143.839 140 147.658 143.037 147.658 147.583C147.658 150.339 146.315 152.516 143.751 153.833C142.319 154.587 141.417 154.552 141.081 154.833C141.47 155.061 142.036 155.307 142.602 156.536C144.37 160.135 145.519 163.171 146.562 165.348C147.376 166.963 148.047 168.28 149.091 168.525C149.851 168.719 151 168.754 151 169.386C151 169.86 150.611 170 150.098 170C149.373 170 148.525 169.86 147.287 169.86C146.279 169.86 145.183 170 144.37 170C143.61 170 143.327 169.193 142.513 167.349C141.612 165.225 140.41 162.276 138.606 157.975C137.793 156.22 137.315 155.851 135.512 155.851C134.363 155.851 134.133 156.044 134.133 156.852V166.085L134.115 166.068ZM134.115 153.552C134.115 154.307 134.204 154.447 135.83 154.447C139.313 154.447 142.743 152.358 142.743 147.864C142.743 143.37 140.604 141.369 136.873 141.369C134.398 141.369 134.098 141.896 134.098 143.599V153.552H134.115Z" fill="#0574BA"/>
<path d="M157.531 159.752C156.766 159.752 156.516 159.839 156.036 161.705C155.128 165.196 154.683 166.423 154.683 167.2C154.683 168.047 155.306 168.462 156.409 168.652C157.228 168.79 157.852 168.842 157.852 169.395C157.852 169.914 157.46 170 156.944 170C156.125 170 154.878 169.81 153.828 169.81C152.582 169.81 151.139 170 150.712 170C150.285 170 150 169.81 150 169.395C150 168.929 150.427 168.79 150.872 168.704C151.585 168.566 152.226 168.376 152.653 167.062C154.914 160.34 157.46 151.336 159.774 143.041C159.917 142.437 160.113 141.832 160.255 141.262C160.398 140.553 160.647 140 161.644 140C162.552 140 162.748 140.328 162.997 141.071C165.543 149.28 168.374 158.283 170.973 166.44C171.312 167.512 171.846 168.497 172.647 168.687C173.217 168.877 174 168.963 174 169.482C174 169.896 173.519 170 172.843 170C171.543 170 170.297 169.81 168.908 169.81C167.519 169.81 165.97 170 164.831 170C164.154 170 163.78 169.862 163.78 169.395C163.78 168.877 164.35 168.704 165.027 168.652C165.739 168.6 166.522 168.462 166.522 167.494C166.522 166.889 165.846 165.109 164.938 161.809C164.404 159.994 164.261 159.752 163.264 159.752H157.585H157.531ZM162.588 158.353C163.46 158.353 163.549 158.162 163.549 157.938C163.549 157.713 163.46 157.333 163.353 156.918C162.819 155.276 161.964 152.719 160.95 149.124C160.718 148.243 160.522 147.915 160.22 147.915C159.917 147.915 159.792 148.243 159.454 149.591C158.546 153.047 157.923 155.19 157.478 156.642C157.228 157.575 157.193 157.903 157.193 158.041C157.193 158.232 157.282 158.37 158.065 158.37H162.588V158.353Z" fill="#0574BA"/>
<path d="M192.564 143.324C192.564 142.132 192.314 141.652 191.316 141.491C190.889 141.438 190.354 141.545 189.82 141.491C189.249 141.438 189 141.296 189 140.958C189 140.424 189.339 140.335 190.871 139.908C193.366 139.178 196.502 139 199.478 139C204.039 139 207.603 140.495 210.062 143.182C212.664 145.869 214 149.713 214 154.286C214 163.077 210.24 170 200.725 170C198.747 170 196.537 169.804 194.185 169.804C192.457 169.804 191.014 170 189.998 170C189.428 170 189.089 169.804 189.089 169.324C189.089 168.701 189.428 168.648 190.586 168.452C192.172 168.256 192.564 167.633 192.564 165.622V143.342V143.324ZM197.179 165.195C197.179 167.348 197.856 168.648 200.351 168.648C203.041 168.648 205.215 167.633 206.694 165.053C208.138 162.793 208.85 159.376 208.85 154.767C208.85 144.481 204.912 140.459 199.959 140.459C197.553 140.459 197.161 141.135 197.161 143.057V165.195H197.179Z" fill="#0574BA"/>
<path d="M467.564 143.324C467.564 142.132 467.314 141.652 466.316 141.491C465.889 141.438 465.354 141.545 464.82 141.491C464.249 141.438 464 141.296 464 140.958C464 140.424 464.339 140.335 465.871 139.908C468.366 139.178 471.502 139 474.478 139C479.039 139 482.603 140.495 485.062 143.182C487.664 145.869 489 149.713 489 154.286C489 163.077 485.24 170 475.725 170C473.747 170 471.537 169.804 469.185 169.804C467.457 169.804 466.014 170 464.998 170C464.428 170 464.089 169.804 464.089 169.324C464.089 168.701 464.428 168.648 465.586 168.452C467.172 168.256 467.564 167.633 467.564 165.622V143.342V143.324ZM472.179 165.195C472.179 167.348 472.856 168.648 475.351 168.648C478.041 168.648 480.215 167.633 481.694 165.053C483.138 162.793 483.85 159.376 483.85 154.767C483.85 144.481 479.912 140.459 474.959 140.459C472.553 140.459 472.161 141.135 472.161 143.057V165.195H472.179Z" fill="#0574BA"/>
<path d="M220.156 143.507C220.156 141.946 219.633 141.613 218.657 141.42C217.767 141.227 217.157 141.28 217.157 140.719C217.157 140.298 217.488 140 218.378 140C219.79 140 222.144 140.193 226.102 140.193C230.06 140.193 233.251 140 235.099 140C236.041 140 236.18 140.193 236.18 141.806C236.18 144.033 236.128 145.646 236.128 146.926C236.128 147.732 235.989 148.013 235.518 148.013C235.134 148.013 234.855 147.627 234.663 147.119C234.472 146.593 234.245 146.032 234.106 145.558C232.972 142.77 231.525 141.438 227.706 141.438C226.433 141.438 225.684 141.525 225.265 141.718C224.742 141.911 224.655 142.385 224.655 142.946V152.309C224.655 153.255 224.794 153.308 226.73 153.308C229.746 153.308 230.548 152.887 231.019 151.186C231.49 149.626 231.49 149.205 232.013 149.205C232.432 149.205 232.571 149.451 232.571 150.24C232.571 151.52 232.379 152.8 232.379 154.027C232.379 155.5 232.571 157.148 232.571 158.515C232.571 159.129 232.327 159.375 232.013 159.375C231.542 159.375 231.403 158.814 231.124 157.674C230.514 155.359 229.764 154.746 227.078 154.746C224.864 154.746 224.672 154.939 224.672 155.693V165.529C224.672 167.808 225.893 168.562 228.665 168.562C232.85 168.562 234.175 166.949 235.309 163.074C235.692 161.707 235.919 161.321 236.39 161.321C236.669 161.321 236.808 161.373 236.861 161.707C236.948 162.18 237 163.179 237 165.441C236.948 166.861 236.913 167.861 236.861 168.667C236.861 169.895 236.39 169.947 235.692 169.947C233.949 169.947 232.065 169.895 230.235 169.86C228.351 169.86 226.555 169.807 225.004 169.807C222.562 169.807 220.348 170 218.36 170C217.471 170 217 169.86 217 169.246C217 168.773 217.419 168.632 218.221 168.492C219.912 168.299 220.191 167.738 220.191 165.845V143.559L220.156 143.507Z" fill="#0574BA"/>
<path d="M495.156 143.507C495.156 141.946 494.633 141.613 493.657 141.42C492.767 141.227 492.157 141.28 492.157 140.719C492.157 140.298 492.488 140 493.378 140C494.79 140 497.144 140.193 501.102 140.193C505.06 140.193 508.251 140 510.099 140C511.041 140 511.18 140.193 511.18 141.806C511.18 144.033 511.128 145.646 511.128 146.926C511.128 147.732 510.989 148.013 510.518 148.013C510.134 148.013 509.855 147.627 509.663 147.119C509.472 146.593 509.245 146.032 509.106 145.558C507.972 142.77 506.525 141.438 502.706 141.438C501.433 141.438 500.684 141.525 500.265 141.718C499.742 141.911 499.655 142.385 499.655 142.946V152.309C499.655 153.255 499.794 153.308 501.73 153.308C504.746 153.308 505.548 152.887 506.019 151.186C506.49 149.626 506.49 149.205 507.013 149.205C507.432 149.205 507.571 149.451 507.571 150.24C507.571 151.52 507.379 152.8 507.379 154.027C507.379 155.5 507.571 157.148 507.571 158.515C507.571 159.129 507.327 159.375 507.013 159.375C506.542 159.375 506.403 158.814 506.124 157.674C505.514 155.359 504.764 154.746 502.078 154.746C499.864 154.746 499.672 154.939 499.672 155.693V165.529C499.672 167.808 500.893 168.562 503.665 168.562C507.85 168.562 509.175 166.949 510.309 163.074C510.692 161.707 510.919 161.321 511.39 161.321C511.669 161.321 511.808 161.373 511.861 161.707C511.948 162.18 512 163.179 512 165.441C511.948 166.861 511.913 167.861 511.861 168.667C511.861 169.895 511.39 169.947 510.692 169.947C508.949 169.947 507.065 169.895 505.235 169.86C503.351 169.86 501.555 169.807 500.004 169.807C497.562 169.807 495.348 170 493.36 170C492.471 170 492 169.86 492 169.246C492 168.773 492.419 168.632 493.221 168.492C494.912 168.299 495.191 167.738 495.191 165.845V143.559L495.156 143.507Z" fill="#0574BA"/>
<path d="M271.891 167.529C271.891 168.704 271.69 168.939 270.907 169.391C269.432 170.313 266.627 171 264.132 171C256.355 171 251 164.51 251 155C251 145.49 256.355 139 264.332 139C267.028 139 269.687 139.886 270.67 140.374C271.217 140.663 271.308 140.862 271.363 142.092C271.454 142.977 271.508 144.424 271.508 146.394C271.508 148.058 271.363 148.256 270.871 148.256C270.179 148.256 269.942 147.533 269.159 145.472C268.029 142.399 266.409 140.446 263.84 140.446C259.961 140.446 256.464 144.84 256.464 154.548C256.464 165.432 260.398 169.626 264.278 169.626C267.465 169.626 268.904 166.842 269.687 163.823C270.27 161.581 270.47 160.55 271.108 160.55C271.69 160.55 272 160.749 272 161.96L271.909 167.565L271.891 167.529Z" fill="#0574BA"/>
<path d="M275 154.316C275 145.669 280.587 139 287.026 139C293.466 139 299 145.949 299 154.596C299 163.243 293.5 170 286.974 170C280.447 170 275 163.051 275 154.369V154.316ZM293.744 155.366C293.744 144.496 290.124 140.383 286.835 140.383C283.545 140.383 280.204 144.076 280.204 153.651C280.204 164.416 283.719 168.635 287.148 168.635C290.246 168.635 293.727 164.941 293.727 155.401V155.349L293.744 155.366Z" fill="#0574BA"/>
<path d="M320.858 169.351C320.858 168.789 321.389 168.632 322.629 168.491C324.153 168.351 324.259 167.684 324.259 165.509C324.259 160.386 323.922 151.018 323.727 145.947C323.674 145.246 323.674 145 323.497 145C323.32 145 323.267 145.281 323.072 145.719C322.169 148.088 320.681 152.737 316.996 164.368C315.65 168.772 315.809 169.667 314.888 169.667C314.321 169.667 314.162 169.281 313.701 167.298C312.125 161.421 308.44 149.439 307.253 145.754C307.111 145.333 307.005 145.088 306.775 145.088C306.58 145.088 306.58 145.474 306.491 146.123C306.155 150.579 305.871 158.193 305.871 162.316C305.871 165.439 305.818 168.228 307.448 168.474C308.316 168.614 309.556 168.667 309.556 169.333C309.556 169.719 309.273 170 308.599 170C307.643 170 306.881 169.807 305.057 169.807C303.391 169.807 302.435 170 301.762 170C301.283 170 301 169.912 301 169.333C301 168.614 301.709 168.719 302.523 168.526C303.905 168.246 304.1 167.158 304.242 164.825C304.525 159.754 305.057 148.667 305.057 144.737C305.11 142.175 305.057 141.702 303.427 141.474C302.612 141.386 301.85 141.281 301.85 140.719C301.85 140.053 302.47 140 303.143 140C304.153 140 305.482 140.14 306.545 140.14C307.359 140.14 308.599 140 309.361 140C309.893 140 310.07 140.14 310.318 140.86C312.089 146.632 313.861 152.421 315.579 158.14C315.969 159.509 316.252 160.596 316.589 160.596C316.872 160.596 317.12 159.93 317.545 158.561C319.37 152.789 321.177 147 323.001 141.281C323.285 140.386 323.568 140 324.099 140C324.808 140 326.013 140.14 326.916 140.14C327.873 140.14 329.254 140 330.264 140C330.795 140 331.274 140.193 331.274 140.667C331.274 141.281 330.654 141.421 329.272 141.526C328.404 141.614 328.174 142.228 328.174 144.368C328.174 149.053 328.741 160.14 328.9 165.965C328.9 167.719 329.325 168.386 330.282 168.474C331.469 168.754 332 168.86 332 169.368C332 169.877 331.575 169.982 330.902 169.982C329.892 169.982 328.758 169.789 326.544 169.789C324.631 169.789 323.054 169.982 322.009 169.982C321.389 169.982 320.911 169.789 320.911 169.368V169.316L320.858 169.351Z" fill="#0574BA"/>
<path d="M337.314 143.507C337.314 141.946 336.765 141.613 335.739 141.42C334.806 141.227 334.165 141.28 334.165 140.719C334.165 140.298 334.513 140 335.446 140C336.929 140 339.401 140.193 343.557 140.193C347.713 140.193 351.064 140 353.004 140C353.993 140 354.139 140.193 354.139 141.806C354.139 144.033 354.085 145.646 354.085 146.926C354.085 147.732 353.938 148.013 353.444 148.013C353.041 148.013 352.748 147.627 352.547 147.119C352.345 146.593 352.107 146.032 351.961 145.558C350.771 142.77 349.251 141.438 345.242 141.438C343.905 141.438 343.118 141.525 342.678 141.718C342.129 141.911 342.038 142.385 342.038 142.946V152.309C342.038 153.255 342.184 153.308 344.216 153.308C347.384 153.308 348.226 152.887 348.72 151.186C349.214 149.626 349.214 149.205 349.764 149.205C350.203 149.205 350.35 149.451 350.35 150.24C350.35 151.52 350.148 152.8 350.148 154.027C350.148 155.5 350.35 157.148 350.35 158.515C350.35 159.129 350.112 159.375 349.764 159.375C349.269 159.375 349.123 158.814 348.83 157.674C348.189 155.359 347.402 154.746 344.582 154.746C342.257 154.746 342.056 154.939 342.056 155.693V165.529C342.056 167.808 343.337 168.562 346.248 168.562C350.643 168.562 352.034 166.949 353.224 163.074C353.627 161.707 353.865 161.321 354.359 161.321C354.652 161.321 354.799 161.373 354.854 161.707C354.945 162.18 355 163.179 355 165.441C354.945 166.861 354.908 167.861 354.854 168.667C354.854 169.895 354.359 169.947 353.627 169.947C351.796 169.947 349.819 169.895 347.896 169.86C345.919 169.86 344.033 169.807 342.404 169.807C339.84 169.807 337.515 170 335.428 170C334.494 170 334 169.86 334 169.246C334 168.773 334.439 168.632 335.282 168.492C337.058 168.299 337.35 167.738 337.35 165.845V143.559L337.314 143.507Z" fill="#0574BA"/>
<path d="M365.115 166.068C365.115 167.578 365.398 168.297 366.777 168.525C367.962 168.754 368.634 168.806 368.634 169.386C368.634 169.86 368.245 170 367.538 170C366.671 170 365.681 169.807 362.958 169.807C360.094 169.807 359.228 170 358.185 170C357.46 170 357 169.912 357 169.386C357 168.771 357.566 168.771 358.998 168.525C360.236 168.385 360.518 167.806 360.518 165.875V144.178C360.518 142.282 360.324 141.668 358.998 141.475C358.096 141.281 357.177 141.387 357.177 140.72C357.177 140.193 357.566 140 358.326 140C359.811 140 361.137 140.193 362.852 140.193C365.098 140.193 367.06 140 369.253 140C374.839 140 378.658 143.037 378.658 147.583C378.658 150.339 377.315 152.516 374.751 153.833C373.319 154.587 372.417 154.552 372.081 154.833C372.47 155.061 373.036 155.307 373.602 156.536C375.37 160.135 376.519 163.171 377.562 165.348C378.376 166.963 379.047 168.28 380.09 168.525C380.851 168.719 382 168.754 382 169.386C382 169.86 381.611 170 381.098 170C380.373 170 379.525 169.86 378.287 169.86C377.279 169.86 376.183 170 375.37 170C374.61 170 374.327 169.193 373.513 167.349C372.612 165.225 371.409 162.276 369.606 157.975C368.793 156.22 368.315 155.851 366.512 155.851C365.363 155.851 365.133 156.044 365.133 156.852V166.085L365.115 166.068ZM365.115 153.552C365.115 154.307 365.204 154.447 366.83 154.447C370.313 154.447 373.743 152.358 373.743 147.864C373.743 143.37 371.604 141.369 367.873 141.369C365.398 141.369 365.098 141.896 365.098 143.599V153.552H365.115Z" fill="#0574BA"/>
<path d="M403.891 167.529C403.891 168.704 403.69 168.939 402.907 169.391C401.432 170.313 398.627 171 396.132 171C388.355 171 383 164.51 383 155C383 145.49 388.355 139 396.332 139C399.028 139 401.687 139.886 402.67 140.374C403.217 140.663 403.308 140.862 403.363 142.092C403.454 142.977 403.508 144.424 403.508 146.394C403.508 148.058 403.363 148.256 402.871 148.256C402.179 148.256 401.942 147.533 401.159 145.472C400.029 142.399 398.408 140.446 395.84 140.446C391.961 140.446 388.464 144.84 388.464 154.548C388.464 165.432 392.398 169.626 396.278 169.626C399.465 169.626 400.904 166.842 401.687 163.823C402.27 161.581 402.47 160.55 403.108 160.55C403.69 160.55 404 160.749 404 161.96L403.909 167.565L403.891 167.529Z" fill="#0574BA"/>
<path d="M414.623 165.895C414.623 167.596 414.845 168.316 416.243 168.491C417.113 168.684 417.949 168.772 417.949 169.439C417.949 169.86 417.574 170 416.84 170C416.056 170 415.51 169.807 412.474 169.807C409.439 169.807 408.927 170 408.057 170C407.46 170 407 170 407 169.333C407 168.772 407.785 168.667 408.654 168.474C410.121 168.246 410.223 167.947 410.223 166.053V143.649C410.223 142 409.984 141.667 408.791 141.526C407.46 141.281 407 141.439 407 140.719C407 140.246 407.375 140 408.057 140C409.388 140 410.735 140.193 412.474 140.193C414.316 140.193 415.698 140 416.943 140C417.54 140 418 140.14 418 140.719C418 141.333 417.454 141.333 416.107 141.526C414.913 141.667 414.64 142.228 414.64 143.649V165.86L414.623 165.895Z" fill="#0574BA"/>
<path d="M421 154.316C421 145.669 426.819 139 433.527 139C440.235 139 446 145.949 446 154.596C446 163.243 440.271 170 433.473 170C426.674 170 421 163.051 421 154.369V154.316ZM440.525 155.366C440.525 144.496 436.754 140.383 433.328 140.383C429.901 140.383 426.421 144.076 426.421 153.651C426.421 164.416 430.083 168.635 433.654 168.635C436.881 168.635 440.507 164.941 440.507 155.401V155.349L440.525 155.366Z" fill="#0574BA"/>
<path d="M534.503 144.599C534.503 142.142 534.217 141.615 533.002 141.527C531.697 141.387 531.071 141.334 531.071 140.72C531.071 140.246 531.411 140 532.126 140C533.377 140 534.485 140.193 537.095 140.193C539.258 140.193 540.866 140 541.671 140C542.296 140 542.636 140.193 542.636 140.614C542.636 141.281 541.867 141.229 540.795 141.475C539.258 141.703 539.061 142.089 539.061 143.792V165.12C539.061 167.578 539.687 168.578 542.243 168.578C545.675 168.578 547.355 166.401 548.373 163.277C548.802 161.908 548.945 161.434 549.428 161.434C549.857 161.434 550 161.627 550 163.084C550 164.892 549.911 166.63 549.857 168.438C549.803 169.86 549.66 170 549.088 170C546.479 170 544.513 169.807 538.382 169.807C534.861 169.807 533.502 170 532.108 170C531.34 170 531 169.807 531 169.333C531 168.806 531.483 168.613 532.644 168.473C534.146 168.332 534.485 167.753 534.485 166.015V144.599H534.503Z" fill="#0574BA"/>
<path d="M560.335 165.895C560.335 167.596 560.577 168.316 562.084 168.491C563.033 168.684 563.944 168.772 563.944 169.439C563.944 169.86 563.535 170 562.735 170C561.879 170 561.284 169.807 557.972 169.807C554.66 169.807 554.102 170 553.153 170C552.502 170 552 170 552 169.333C552 168.772 552.856 168.667 553.805 168.474C555.405 168.246 555.516 167.947 555.516 166.053V143.649C555.516 142 555.256 141.667 553.953 141.526C552.502 141.281 552 141.439 552 140.719C552 140.246 552.409 140 553.153 140C554.605 140 556.074 140.193 557.972 140.193C559.981 140.193 561.488 140 562.847 140C563.498 140 564 140.14 564 140.719C564 141.333 563.405 141.333 561.935 141.526C560.633 141.667 560.335 142.228 560.335 143.649V165.86V165.895Z" fill="#0574BA"/>
<path d="M585.887 169.351C585.887 168.789 586.419 168.632 587.659 168.491C589.184 168.351 589.29 167.684 589.29 165.509C589.29 160.386 588.953 151.018 588.758 145.947C588.705 145.246 588.705 145 588.51 145C588.315 145 588.28 145.281 588.085 145.719C587.181 148.088 585.692 152.737 582.005 164.368C580.658 168.772 580.818 169.667 579.896 169.667C579.329 169.667 579.169 169.281 578.708 167.298C577.131 161.421 573.444 149.439 572.257 145.754C572.115 145.333 572.009 145.088 571.778 145.088C571.583 145.088 571.583 145.474 571.495 146.123C571.158 150.579 570.874 158.193 570.874 162.316C570.874 165.439 570.821 168.228 572.452 168.474C573.32 168.614 574.561 168.667 574.561 169.333C574.561 169.719 574.277 170 573.604 170C572.647 170 571.885 169.807 570.059 169.807C568.393 169.807 567.436 170 566.762 170C566.284 170 566 169.912 566 169.333C566 168.614 566.709 168.719 567.524 168.526C568.907 168.246 569.102 167.158 569.244 164.825C569.527 159.754 570.059 148.667 570.059 144.737C570.112 142.175 570.059 141.702 568.428 141.474C567.613 141.386 566.851 141.281 566.851 140.719C566.851 140.053 567.471 140 568.145 140C569.155 140 570.484 140.14 571.548 140.14C572.363 140.14 573.604 140 574.366 140C574.898 140 575.075 140.14 575.323 140.86C577.095 146.632 578.868 152.421 580.587 158.14C580.977 159.509 581.261 160.596 581.597 160.596C581.881 160.596 582.129 159.93 582.555 158.561C584.38 152.789 586.188 147 588.014 141.281C588.297 140.386 588.581 140 589.113 140C589.822 140 591.027 140.14 591.931 140.14C592.888 140.14 594.27 140 595.281 140C595.812 140 596.291 140.193 596.291 140.667C596.291 141.281 595.671 141.421 594.288 141.526C593.42 141.614 593.189 142.228 593.189 144.368C593.189 149.053 593.756 160.14 593.898 165.965C593.898 167.719 594.324 168.386 595.281 168.474C596.468 168.754 597 168.86 597 169.368C597 169.877 596.575 169.982 595.901 169.982C594.891 169.982 593.756 169.789 591.541 169.789C589.627 169.789 588.049 169.982 587.003 169.982C586.383 169.982 585.905 169.789 585.905 169.368V169.316L585.887 169.351Z" fill="#0574BA"/>
<path d="M604.531 159.411C603.766 159.411 603.516 159.5 603.036 161.429C602.128 165.036 601.682 166.304 601.682 167.107C601.682 167.982 602.306 168.411 603.41 168.607C604.228 168.75 604.852 168.804 604.852 169.375C604.852 169.911 604.46 170 603.944 170C603.125 170 601.878 169.804 600.828 169.804C599.582 169.804 598.14 170 597.712 170C597.285 170 597 169.804 597 169.375C597 168.893 597.427 168.75 597.872 168.661C598.585 168.518 599.226 168.321 599.653 166.964C601.914 160.018 604.46 150.714 606.775 142.143C606.917 141.518 607.113 140.893 607.255 140.304C607.398 139.571 607.647 139 608.644 139C609.552 139 609.748 139.339 609.997 140.107C612.543 148.589 615.374 157.893 617.973 166.321C618.312 167.429 618.846 168.446 619.647 168.643C620.217 168.839 621 168.929 621 169.464C621 169.893 620.519 170 619.843 170C618.543 170 617.297 169.804 615.908 169.804C614.519 169.804 612.97 170 611.831 170C611.154 170 610.78 169.857 610.78 169.375C610.78 168.839 611.35 168.661 612.027 168.607C612.739 168.554 613.522 168.411 613.522 167.411C613.522 166.786 612.846 164.946 611.938 161.536C611.404 159.661 611.261 159.411 610.264 159.411H604.585H604.531ZM609.588 157.964C610.46 157.964 610.549 157.768 610.549 157.536C610.549 157.304 610.46 156.911 610.353 156.482C609.819 154.786 608.964 152.143 607.95 148.429C607.718 147.518 607.522 147.179 607.237 147.179C606.953 147.179 606.81 147.518 606.472 148.911C605.564 152.482 604.941 154.696 604.496 156.196C604.246 157.161 604.211 157.5 604.211 157.643C604.211 157.839 604.3 157.982 605.083 157.982H609.605L609.588 157.964Z" fill="#0574BA"/>
<path d="M263.499 5.48242V102.373" stroke="#EDC227" stroke-width="2" stroke-miterlimit="10"/>
<path d="M80.9158 96.3944C75.4942 98.8298 67.2215 100.449 55.7005 100.449C21.8268 100.449 0 80.9899 0 49.6331C0 22.0634 21.4179 3 53.3986 3C64.1017 3 70.7502 4.08368 77.796 5.70337L79.0112 19.7562C69.6635 15.0253 60.4444 12.1821 53.3986 12.1821C32.3897 12.1821 16.3935 25.2911 16.3935 49.4816C16.3935 77.599 34.2826 90.8478 55.7005 90.8478C67.8992 90.8478 76.9781 88.1445 86.6062 79.4984L80.9158 96.3944Z" fill="#0574BA"/>
<path d="M169.836 96.3944C164.414 98.8298 156.141 100.449 144.62 100.449C110.735 100.449 88.9197 80.9899 88.9197 49.6215C88.9197 22.0634 110.326 3 142.318 3C153.021 3 159.67 4.08368 166.716 5.70337L167.931 19.7562C158.583 15.0253 149.364 12.1821 142.318 12.1821C121.309 12.1821 105.313 25.2911 105.313 49.4816C105.313 77.599 123.202 90.8478 144.62 90.8478C156.819 90.8478 165.898 88.1445 175.526 79.4984L169.836 96.3944Z" fill="#0574BA"/>
<path d="M240.586 98.4222H181.894C183.39 96.9307 184.196 95.1828 184.196 91.1277V12.0542C184.196 7.99915 183.378 6.23963 181.894 4.75977H202.634C201.139 6.25128 200.332 7.99915 200.332 12.0542V89.2284H226.494C236.391 89.2284 238.553 88.8206 244.792 85.1733L240.586 98.4222Z" fill="#0574BA"/>
<path d="M263.499 5.48242V102.373" stroke="#EDC227" stroke-width="2" stroke-miterlimit="10"/>
<path d="M55.5312 159.596C54.7656 159.596 54.5163 159.684 54.0356 161.579C53.1276 165.123 52.6825 166.368 52.6825 167.158C52.6825 168.018 53.3056 168.439 54.4095 168.632C55.2285 168.772 55.8516 168.825 55.8516 169.386C55.8516 169.912 55.4599 170 54.9436 170C54.1246 170 52.8783 169.807 51.8279 169.807C50.5816 169.807 49.1395 170 48.7122 170C48.2849 170 48 169.807 48 169.386C48 168.912 48.4273 168.772 48.8724 168.684C49.5846 168.544 50.2256 168.351 50.6529 167.018C52.914 160.193 55.46 151.053 57.7745 142.632C57.9169 142.018 58.1128 141.404 58.2552 140.825C58.3976 140.105 58.6469 139.544 59.6439 139.544C60.5519 139.544 60.7478 139.877 60.9971 140.632C63.543 148.965 66.3739 158.105 68.9733 166.386C69.3116 167.474 69.8457 168.474 70.6469 168.667C71.2166 168.86 72 168.947 72 169.474C72 169.895 71.5193 170 70.8427 170C69.543 170 68.2967 169.807 66.908 169.807C65.5193 169.807 63.9703 170 62.8309 170C62.1543 170 61.7804 169.86 61.7804 169.386C61.7804 168.86 62.3501 168.684 63.0267 168.632C63.7389 168.579 64.5222 168.439 64.5222 167.456C64.5222 166.842 63.8457 165.035 62.9377 161.684C62.4036 159.842 62.2611 159.596 61.2641 159.596H55.5846H55.5312ZM60.5875 158.175C61.4599 158.175 61.549 157.982 61.549 157.754C61.549 157.526 61.4599 157.14 61.3531 156.719C60.819 155.053 59.9644 152.456 58.9495 148.807C58.7181 147.912 58.5222 147.579 58.2374 147.579C57.9525 147.579 57.8101 147.912 57.4718 149.281C56.5638 152.789 55.9407 154.965 55.4956 156.439C55.2463 157.386 55.2107 157.719 55.2107 157.86C55.2107 158.053 55.2997 158.193 56.0831 158.193H60.6054L60.5875 158.175ZM56.2967 138C56.1009 138 55.905 137.807 55.905 137.579C55.905 137.193 56.5816 136.772 56.8131 136.491L62.3324 131.614C63.1514 130.86 64.0593 130 65.0742 130C65.9466 130 66.5163 130.614 66.5163 131.421C66.5163 132.456 65.4125 133.123 64.3086 133.737L57.9703 137.281C57.2938 137.667 56.6706 138 56.3323 138H56.2789H56.2967Z" fill="#0574BA"/>
<path d="M46.8907 167.637C46.8907 168.776 46.6904 169.003 45.9072 169.441C44.4319 170.334 41.627 171 39.1318 171C31.3547 171 26 164.712 26 155.5C26 146.288 31.3547 140 39.3322 140C42.0277 140 44.6869 140.858 45.6704 141.331C46.2168 141.611 46.3079 141.804 46.3625 142.995C46.4536 143.853 46.5082 145.254 46.5082 147.163C46.5082 148.775 46.3625 148.967 45.8708 148.967C45.1786 148.967 44.9419 148.267 44.1587 146.27C43.0295 143.293 41.4085 141.401 38.8404 141.401C34.9609 141.401 31.464 145.657 31.464 155.062C31.464 165.606 35.3981 169.669 39.2775 169.669C42.4649 169.669 43.9037 166.972 44.6869 164.047C45.2697 161.875 45.4701 160.877 46.1075 160.877C46.6904 160.877 47 161.069 47 162.243L46.9089 167.672L46.8907 167.637Z" fill="#0574BA"/>
<path d="M109.531 159.752C108.766 159.752 108.516 159.839 108.036 161.705C107.128 165.196 106.682 166.423 106.682 167.2C106.682 168.047 107.306 168.462 108.41 168.652C109.228 168.79 109.852 168.842 109.852 169.395C109.852 169.914 109.46 170 108.944 170C108.125 170 106.878 169.81 105.828 169.81C104.582 169.81 103.14 170 102.712 170C102.285 170 102 169.81 102 169.395C102 168.929 102.427 168.79 102.872 168.704C103.585 168.566 104.226 168.376 104.653 167.062C106.914 160.34 109.46 151.336 111.775 143.041C111.917 142.437 112.113 141.832 112.255 141.262C112.398 140.553 112.647 140 113.644 140C114.552 140 114.748 140.328 114.997 141.071C117.543 149.28 120.374 158.283 122.973 166.44C123.312 167.512 123.846 168.497 124.647 168.687C125.217 168.877 126 168.963 126 169.482C126 169.896 125.519 170 124.843 170C123.543 170 122.297 169.81 120.908 169.81C119.519 169.81 117.97 170 116.831 170C116.154 170 115.78 169.862 115.78 169.395C115.78 168.877 116.35 168.704 117.027 168.652C117.739 168.6 118.522 168.462 118.522 167.494C118.522 166.889 117.846 165.109 116.938 161.809C116.404 159.994 116.261 159.752 115.264 159.752H109.585H109.531ZM114.57 158.353C115.442 158.353 115.531 158.162 115.531 157.938C115.531 157.713 115.442 157.333 115.335 156.918C114.801 155.276 113.947 152.719 112.932 149.124C112.7 148.243 112.504 147.915 112.22 147.915C111.935 147.915 111.792 148.243 111.454 149.591C110.546 153.047 109.923 155.19 109.478 156.642C109.229 157.575 109.193 157.903 109.193 158.041C109.193 158.232 109.282 158.37 110.065 158.37H114.588L114.57 158.353Z" fill="#0574BA"/>
<path d="M157.531 159.752C156.766 159.752 156.516 159.839 156.036 161.705C155.128 165.196 154.683 166.423 154.683 167.2C154.683 168.047 155.306 168.462 156.409 168.652C157.228 168.79 157.852 168.842 157.852 169.395C157.852 169.914 157.46 170 156.944 170C156.125 170 154.878 169.81 153.828 169.81C152.582 169.81 151.139 170 150.712 170C150.285 170 150 169.81 150 169.395C150 168.929 150.427 168.79 150.872 168.704C151.585 168.566 152.226 168.376 152.653 167.062C154.914 160.34 157.46 151.336 159.774 143.041C159.917 142.437 160.113 141.832 160.255 141.262C160.398 140.553 160.647 140 161.644 140C162.552 140 162.748 140.328 162.997 141.071C165.543 149.28 168.374 158.283 170.973 166.44C171.312 167.512 171.846 168.497 172.647 168.687C173.217 168.877 174 168.963 174 169.482C174 169.896 173.519 170 172.843 170C171.543 170 170.297 169.81 168.908 169.81C167.519 169.81 165.97 170 164.831 170C164.154 170 163.78 169.862 163.78 169.395C163.78 168.877 164.35 168.704 165.027 168.652C165.739 168.6 166.522 168.462 166.522 167.494C166.522 166.889 165.846 165.109 164.938 161.809C164.404 159.994 164.261 159.752 163.264 159.752H157.585H157.531ZM162.588 158.353C163.46 158.353 163.549 158.162 163.549 157.938C163.549 157.713 163.46 157.333 163.353 156.918C162.819 155.276 161.964 152.719 160.95 149.124C160.718 148.243 160.522 147.915 160.22 147.915C159.917 147.915 159.792 148.243 159.454 149.591C158.546 153.047 157.923 155.19 157.478 156.642C157.228 157.575 157.193 157.903 157.193 158.041C157.193 158.232 157.282 158.37 158.065 158.37H162.588V158.353Z" fill="#0574BA"/>
<path d="M90.8868 169.351C90.8868 168.789 91.4185 168.632 92.6592 168.491C94.1835 168.351 94.2899 167.684 94.2899 165.509C94.2899 160.386 93.9531 151.018 93.7582 145.947C93.705 145.246 93.705 145 93.51 145C93.315 145 93.2796 145.281 93.0846 145.719C92.1807 148.088 90.6918 152.737 87.0052 164.368C85.6581 168.772 85.8176 169.667 84.8959 169.667C84.3288 169.667 84.1692 169.281 83.7084 167.298C82.1309 161.421 78.4443 149.439 77.2567 145.754C77.1149 145.333 77.0086 145.088 76.7782 145.088C76.5832 145.088 76.5832 145.474 76.4946 146.123C76.1578 150.579 75.8742 158.193 75.8742 162.316C75.8742 165.439 75.821 168.228 77.4517 168.474C78.3202 168.614 79.5609 168.667 79.5609 169.333C79.5609 169.719 79.2773 170 78.6038 170C77.6467 170 76.8845 169.807 75.0589 169.807C73.3928 169.807 72.4357 170 71.7621 170C71.2836 170 71 169.912 71 169.333C71 168.614 71.709 168.719 72.5243 168.526C73.9068 168.246 74.1018 167.158 74.2435 164.825C74.5271 159.754 75.0589 148.667 75.0589 144.737C75.1121 142.175 75.0589 141.702 73.4282 141.474C72.6129 141.386 71.8507 141.281 71.8507 140.719C71.8507 140.053 72.4711 140 73.1446 140C74.1549 140 75.4843 140.14 76.5478 140.14C77.3631 140.14 78.6038 140 79.3659 140C79.8977 140 80.0749 140.14 80.3231 140.86C82.0955 146.632 83.8679 152.421 85.5872 158.14C85.9771 159.509 86.2607 160.596 86.5975 160.596C86.8811 160.596 87.1292 159.93 87.5546 158.561C89.3802 152.789 91.1881 147 93.0137 141.281C93.2973 140.386 93.5809 140 94.1127 140C94.8216 140 96.0269 140.14 96.9308 140.14C97.888 140.14 99.2704 140 100.281 140C100.812 140 101.291 140.193 101.291 140.667C101.291 141.281 100.671 141.421 99.2882 141.526C98.4197 141.614 98.1893 142.228 98.1893 144.368C98.1893 149.053 98.7564 160.14 98.8982 165.965C98.8982 167.719 99.3236 168.386 100.281 168.474C101.468 168.754 102 168.86 102 169.368C102 169.877 101.575 169.982 100.901 169.982C99.8908 169.982 98.7565 169.789 96.5409 169.789C94.6267 169.789 93.0492 169.982 92.0035 169.982C91.3831 169.982 90.9045 169.789 90.9045 169.368V169.316L90.8868 169.351Z" fill="#0574BA"/>
<path d="M134.115 166.068C134.115 167.578 134.398 168.297 135.777 168.525C136.962 168.754 137.634 168.806 137.634 169.386C137.634 169.86 137.245 170 136.537 170C135.671 170 134.681 169.807 131.958 169.807C129.094 169.807 128.228 170 127.185 170C126.46 170 126 169.912 126 169.386C126 168.771 126.566 168.771 127.998 168.525C129.236 168.385 129.518 167.806 129.518 165.875V144.178C129.518 142.282 129.324 141.668 127.998 141.475C127.096 141.281 126.177 141.387 126.177 140.72C126.177 140.193 126.566 140 127.326 140C128.811 140 130.137 140.193 131.852 140.193C134.098 140.193 136.06 140 138.252 140C143.839 140 147.658 143.037 147.658 147.583C147.658 150.339 146.315 152.516 143.751 153.833C142.319 154.587 141.417 154.552 141.081 154.833C141.47 155.061 142.036 155.307 142.602 156.536C144.37 160.135 145.519 163.171 146.562 165.348C147.376 166.963 148.047 168.28 149.091 168.525C149.851 168.719 151 168.754 151 169.386C151 169.86 150.611 170 150.098 170C149.373 170 148.525 169.86 147.287 169.86C146.279 169.86 145.183 170 144.37 170C143.61 170 143.327 169.193 142.513 167.349C141.612 165.225 140.41 162.276 138.606 157.975C137.793 156.22 137.315 155.851 135.512 155.851C134.363 155.851 134.133 156.044 134.133 156.852V166.085L134.115 166.068ZM134.115 153.552C134.115 154.307 134.204 154.447 135.83 154.447C139.313 154.447 142.743 152.358 142.743 147.864C142.743 143.37 140.604 141.369 136.873 141.369C134.398 141.369 134.098 141.896 134.098 143.599V153.552H134.115Z" fill="#0574BA"/>
<path d="M192.564 143.324C192.564 142.132 192.314 141.652 191.316 141.491C190.889 141.438 190.354 141.545 189.82 141.491C189.249 141.438 189 141.296 189 140.958C189 140.424 189.339 140.335 190.871 139.908C193.366 139.178 196.502 139 199.478 139C204.039 139 207.603 140.495 210.062 143.182C212.664 145.869 214 149.713 214 154.286C214 163.077 210.24 170 200.725 170C198.747 170 196.537 169.804 194.185 169.804C192.457 169.804 191.014 170 189.998 170C189.428 170 189.089 169.804 189.089 169.324C189.089 168.701 189.428 168.648 190.586 168.452C192.172 168.256 192.564 167.633 192.564 165.622V143.342V143.324ZM197.179 165.195C197.179 167.348 197.856 168.648 200.351 168.648C203.041 168.648 205.215 167.633 206.694 165.053C208.138 162.793 208.85 159.376 208.85 154.767C208.85 144.481 204.912 140.459 199.959 140.459C197.553 140.459 197.161 141.135 197.161 143.057V165.195H197.179Z" fill="#0574BA"/>
<path d="M467.564 143.324C467.564 142.132 467.314 141.652 466.316 141.491C465.889 141.438 465.354 141.545 464.82 141.491C464.249 141.438 464 141.296 464 140.958C464 140.424 464.339 140.335 465.871 139.908C468.366 139.178 471.502 139 474.478 139C479.039 139 482.603 140.495 485.062 143.182C487.664 145.869 489 149.713 489 154.286C489 163.077 485.24 170 475.725 170C473.747 170 471.537 169.804 469.185 169.804C467.457 169.804 466.014 170 464.998 170C464.428 170 464.089 169.804 464.089 169.324C464.089 168.701 464.428 168.648 465.586 168.452C467.172 168.256 467.564 167.633 467.564 165.622V143.342V143.324ZM472.179 165.195C472.179 167.348 472.856 168.648 475.351 168.648C478.041 168.648 480.215 167.633 481.694 165.053C483.138 162.793 483.85 159.376 483.85 154.767C483.85 144.481 479.912 140.459 474.959 140.459C472.553 140.459 472.161 141.135 472.161 143.057V165.195H472.179Z" fill="#0574BA"/>
<path d="M275 154.316C275 145.669 280.587 139 287.026 139C293.466 139 299 145.949 299 154.596C299 163.243 293.5 170 286.974 170C280.447 170 275 163.051 275 154.369V154.316ZM293.744 155.366C293.744 144.496 290.124 140.383 286.835 140.383C283.545 140.383 280.204 144.076 280.204 153.651C280.204 164.416 283.719 168.635 287.148 168.635C290.246 168.635 293.727 164.941 293.727 155.401V155.349L293.744 155.366Z" fill="#0574BA"/>
<path d="M421 154.316C421 145.669 426.819 139 433.527 139C440.235 139 446 145.949 446 154.596C446 163.243 440.271 170 433.473 170C426.674 170 421 163.051 421 154.369V154.316ZM440.525 155.366C440.525 144.496 436.754 140.383 433.328 140.383C429.901 140.383 426.421 144.076 426.421 153.651C426.421 164.416 430.083 168.635 433.654 168.635C436.881 168.635 440.507 164.941 440.507 155.401V155.349L440.525 155.366Z" fill="#0574BA"/>
<path d="M271.891 167.529C271.891 168.704 271.69 168.939 270.907 169.391C269.432 170.313 266.627 171 264.132 171C256.355 171 251 164.51 251 155C251 145.49 256.355 139 264.332 139C267.028 139 269.687 139.886 270.67 140.374C271.217 140.663 271.308 140.862 271.363 142.092C271.454 142.977 271.508 144.424 271.508 146.394C271.508 148.058 271.363 148.256 270.871 148.256C270.179 148.256 269.942 147.533 269.159 145.472C268.029 142.399 266.409 140.446 263.84 140.446C259.961 140.446 256.464 144.84 256.464 154.548C256.464 165.432 260.398 169.626 264.278 169.626C267.465 169.626 268.904 166.842 269.687 163.823C270.27 161.581 270.47 160.55 271.108 160.55C271.69 160.55 272 160.749 272 161.96L271.909 167.565L271.891 167.529Z" fill="#0574BA"/>
<path d="M403.891 167.529C403.891 168.704 403.69 168.939 402.907 169.391C401.432 170.313 398.627 171 396.132 171C388.355 171 383 164.51 383 155C383 145.49 388.355 139 396.332 139C399.028 139 401.687 139.886 402.67 140.374C403.217 140.663 403.308 140.862 403.363 142.092C403.454 142.977 403.508 144.424 403.508 146.394C403.508 148.058 403.363 148.256 402.871 148.256C402.179 148.256 401.942 147.533 401.159 145.472C400.029 142.399 398.408 140.446 395.84 140.446C391.961 140.446 388.464 144.84 388.464 154.548C388.464 165.432 392.398 169.626 396.278 169.626C399.465 169.626 400.904 166.842 401.687 163.823C402.27 161.581 402.47 160.55 403.108 160.55C403.69 160.55 404 160.749 404 161.96L403.909 167.565L403.891 167.529Z" fill="#0574BA"/>
<path d="M320.858 169.351C320.858 168.789 321.389 168.632 322.629 168.491C324.153 168.351 324.259 167.684 324.259 165.509C324.259 160.386 323.922 151.018 323.727 145.947C323.674 145.246 323.674 145 323.497 145C323.32 145 323.267 145.281 323.072 145.719C322.169 148.088 320.681 152.737 316.996 164.368C315.65 168.772 315.809 169.667 314.888 169.667C314.321 169.667 314.162 169.281 313.701 167.298C312.125 161.421 308.44 149.439 307.253 145.754C307.111 145.333 307.005 145.088 306.775 145.088C306.58 145.088 306.58 145.474 306.491 146.123C306.155 150.579 305.871 158.193 305.871 162.316C305.871 165.439 305.818 168.228 307.448 168.474C308.316 168.614 309.556 168.667 309.556 169.333C309.556 169.719 309.273 170 308.599 170C307.643 170 306.881 169.807 305.057 169.807C303.391 169.807 302.435 170 301.762 170C301.283 170 301 169.912 301 169.333C301 168.614 301.709 168.719 302.523 168.526C303.905 168.246 304.1 167.158 304.242 164.825C304.525 159.754 305.057 148.667 305.057 144.737C305.11 142.175 305.057 141.702 303.427 141.474C302.612 141.386 301.85 141.281 301.85 140.719C301.85 140.053 302.47 140 303.143 140C304.153 140 305.482 140.14 306.545 140.14C307.359 140.14 308.599 140 309.361 140C309.893 140 310.07 140.14 310.318 140.86C312.089 146.632 313.861 152.421 315.579 158.14C315.969 159.509 316.252 160.596 316.589 160.596C316.872 160.596 317.12 159.93 317.545 158.561C319.37 152.789 321.177 147 323.001 141.281C323.285 140.386 323.568 140 324.099 140C324.808 140 326.013 140.14 326.916 140.14C327.873 140.14 329.254 140 330.264 140C330.795 140 331.274 140.193 331.274 140.667C331.274 141.281 330.654 141.421 329.272 141.526C328.404 141.614 328.174 142.228 328.174 144.368C328.174 149.053 328.741 160.14 328.9 165.965C328.9 167.719 329.325 168.386 330.282 168.474C331.469 168.754 332 168.86 332 169.368C332 169.877 331.575 169.982 330.902 169.982C329.892 169.982 328.758 169.789 326.544 169.789C324.631 169.789 323.054 169.982 322.009 169.982C321.389 169.982 320.911 169.789 320.911 169.368V169.316L320.858 169.351Z" fill="#0574BA"/>
<path d="M414.623 165.895C414.623 167.596 414.845 168.316 416.243 168.491C417.113 168.684 417.949 168.772 417.949 169.439C417.949 169.86 417.574 170 416.84 170C416.056 170 415.51 169.807 412.474 169.807C409.439 169.807 408.927 170 408.057 170C407.46 170 407 170 407 169.333C407 168.772 407.785 168.667 408.654 168.474C410.121 168.246 410.223 167.947 410.223 166.053V143.649C410.223 142 409.984 141.667 408.791 141.526C407.46 141.281 407 141.439 407 140.719C407 140.246 407.375 140 408.057 140C409.388 140 410.735 140.193 412.474 140.193C414.316 140.193 415.698 140 416.943 140C417.54 140 418 140.14 418 140.719C418 141.333 417.454 141.333 416.107 141.526C414.913 141.667 414.64 142.228 414.64 143.649V165.86L414.623 165.895Z" fill="#0574BA"/>
<path d="M220.156 143.507C220.156 141.946 219.633 141.613 218.657 141.42C217.767 141.227 217.157 141.28 217.157 140.719C217.157 140.298 217.488 140 218.378 140C219.79 140 222.144 140.193 226.102 140.193C230.06 140.193 233.251 140 235.099 140C236.041 140 236.18 140.193 236.18 141.806C236.18 144.033 236.128 145.646 236.128 146.926C236.128 147.732 235.989 148.013 235.518 148.013C235.134 148.013 234.855 147.627 234.663 147.119C234.472 146.593 234.245 146.032 234.106 145.558C232.972 142.77 231.525 141.438 227.706 141.438C226.433 141.438 225.684 141.525 225.265 141.718C224.742 141.911 224.655 142.385 224.655 142.946V152.309C224.655 153.255 224.794 153.308 226.73 153.308C229.746 153.308 230.548 152.887 231.019 151.186C231.49 149.626 231.49 149.205 232.013 149.205C232.432 149.205 232.571 149.451 232.571 150.24C232.571 151.52 232.379 152.8 232.379 154.027C232.379 155.5 232.571 157.148 232.571 158.515C232.571 159.129 232.327 159.375 232.013 159.375C231.542 159.375 231.403 158.814 231.124 157.674C230.514 155.359 229.764 154.746 227.078 154.746C224.864 154.746 224.672 154.939 224.672 155.693V165.529C224.672 167.808 225.893 168.562 228.665 168.562C232.85 168.562 234.175 166.949 235.309 163.074C235.692 161.707 235.919 161.321 236.39 161.321C236.669 161.321 236.808 161.373 236.861 161.707C236.948 162.18 237 163.179 237 165.441C236.948 166.861 236.913 167.861 236.861 168.667C236.861 169.895 236.39 169.947 235.692 169.947C233.949 169.947 232.065 169.895 230.235 169.86C228.351 169.86 226.555 169.807 225.004 169.807C222.562 169.807 220.348 170 218.36 170C217.471 170 217 169.86 217 169.246C217 168.773 217.419 168.632 218.221 168.492C219.912 168.299 220.191 167.738 220.191 165.845V143.559L220.156 143.507Z" fill="#0574BA"/>
<path d="M495.156 143.507C495.156 141.946 494.633 141.613 493.657 141.42C492.767 141.227 492.157 141.28 492.157 140.719C492.157 140.298 492.488 140 493.378 140C494.79 140 497.144 140.193 501.102 140.193C505.06 140.193 508.251 140 510.099 140C511.041 140 511.18 140.193 511.18 141.806C511.18 144.033 511.128 145.646 511.128 146.926C511.128 147.732 510.989 148.013 510.518 148.013C510.134 148.013 509.855 147.627 509.663 147.119C509.472 146.593 509.245 146.032 509.106 145.558C507.972 142.77 506.525 141.438 502.706 141.438C501.433 141.438 500.684 141.525 500.265 141.718C499.742 141.911 499.655 142.385 499.655 142.946V152.309C499.655 153.255 499.794 153.308 501.73 153.308C504.746 153.308 505.548 152.887 506.019 151.186C506.49 149.626 506.49 149.205 507.013 149.205C507.432 149.205 507.571 149.451 507.571 150.24C507.571 151.52 507.379 152.8 507.379 154.027C507.379 155.5 507.571 157.148 507.571 158.515C507.571 159.129 507.327 159.375 507.013 159.375C506.542 159.375 506.403 158.814 506.124 157.674C505.514 155.359 504.764 154.746 502.078 154.746C499.864 154.746 499.672 154.939 499.672 155.693V165.529C499.672 167.808 500.893 168.562 503.665 168.562C507.85 168.562 509.175 166.949 510.309 163.074C510.692 161.707 510.919 161.321 511.39 161.321C511.669 161.321 511.808 161.373 511.861 161.707C511.948 162.18 512 163.179 512 165.441C511.948 166.861 511.913 167.861 511.861 168.667C511.861 169.895 511.39 169.947 510.692 169.947C508.949 169.947 507.065 169.895 505.235 169.86C503.351 169.86 501.555 169.807 500.004 169.807C497.562 169.807 495.348 170 493.36 170C492.471 170 492 169.86 492 169.246C492 168.773 492.419 168.632 493.221 168.492C494.912 168.299 495.191 167.738 495.191 165.845V143.559L495.156 143.507Z" fill="#0574BA"/>
<path d="M337.314 143.507C337.314 141.946 336.765 141.613 335.739 141.42C334.806 141.227 334.165 141.28 334.165 140.719C334.165 140.298 334.513 140 335.446 140C336.929 140 339.401 140.193 343.557 140.193C347.713 140.193 351.064 140 353.004 140C353.993 140 354.139 140.193 354.139 141.806C354.139 144.033 354.085 145.646 354.085 146.926C354.085 147.732 353.938 148.013 353.444 148.013C353.041 148.013 352.748 147.627 352.547 147.119C352.345 146.593 352.107 146.032 351.961 145.558C350.771 142.77 349.251 141.438 345.242 141.438C343.905 141.438 343.118 141.525 342.678 141.718C342.129 141.911 342.038 142.385 342.038 142.946V152.309C342.038 153.255 342.184 153.308 344.216 153.308C347.384 153.308 348.226 152.887 348.72 151.186C349.214 149.626 349.214 149.205 349.764 149.205C350.203 149.205 350.35 149.451 350.35 150.24C350.35 151.52 350.148 152.8 350.148 154.027C350.148 155.5 350.35 157.148 350.35 158.515C350.35 159.129 350.112 159.375 349.764 159.375C349.269 159.375 349.123 158.814 348.83 157.674C348.189 155.359 347.402 154.746 344.582 154.746C342.257 154.746 342.056 154.939 342.056 155.693V165.529C342.056 167.808 343.337 168.562 346.248 168.562C350.643 168.562 352.034 166.949 353.224 163.074C353.627 161.707 353.865 161.321 354.359 161.321C354.652 161.321 354.799 161.373 354.854 161.707C354.945 162.18 355 163.179 355 165.441C354.945 166.861 354.908 167.861 354.854 168.667C354.854 169.895 354.359 169.947 353.627 169.947C351.796 169.947 349.819 169.895 347.896 169.86C345.919 169.86 344.033 169.807 342.404 169.807C339.84 169.807 337.515 170 335.428 170C334.494 170 334 169.86 334 169.246C334 168.773 334.439 168.632 335.282 168.492C337.058 168.299 337.35 167.738 337.35 165.845V143.559L337.314 143.507Z" fill="#0574BA"/>
<path d="M365.115 166.068C365.115 167.578 365.398 168.297 366.777 168.525C367.962 168.754 368.634 168.806 368.634 169.386C368.634 169.86 368.245 170 367.538 170C366.671 170 365.681 169.807 362.958 169.807C360.094 169.807 359.228 170 358.185 170C357.46 170 357 169.912 357 169.386C357 168.771 357.566 168.771 358.998 168.525C360.236 168.385 360.518 167.806 360.518 165.875V144.178C360.518 142.282 360.324 141.668 358.998 141.475C358.096 141.281 357.177 141.387 357.177 140.72C357.177 140.193 357.566 140 358.326 140C359.811 140 361.137 140.193 362.852 140.193C365.098 140.193 367.06 140 369.253 140C374.839 140 378.658 143.037 378.658 147.583C378.658 150.339 377.315 152.516 374.751 153.833C373.319 154.587 372.417 154.552 372.081 154.833C372.47 155.061 373.036 155.307 373.602 156.536C375.37 160.135 376.519 163.171 377.562 165.348C378.376 166.963 379.047 168.28 380.09 168.525C380.851 168.719 382 168.754 382 169.386C382 169.86 381.611 170 381.098 170C380.373 170 379.525 169.86 378.287 169.86C377.279 169.86 376.183 170 375.37 170C374.61 170 374.327 169.193 373.513 167.349C372.612 165.225 371.409 162.276 369.606 157.975C368.793 156.22 368.315 155.851 366.512 155.851C365.363 155.851 365.133 156.044 365.133 156.852V166.085L365.115 166.068ZM365.115 153.552C365.115 154.307 365.204 154.447 366.83 154.447C370.313 154.447 373.743 152.358 373.743 147.864C373.743 143.37 371.604 141.369 367.873 141.369C365.398 141.369 365.098 141.896 365.098 143.599V153.552H365.115Z" fill="#0574BA"/>
<path d="M604.531 159.411C603.766 159.411 603.516 159.5 603.036 161.429C602.128 165.036 601.682 166.304 601.682 167.107C601.682 167.982 602.306 168.411 603.41 168.607C604.228 168.75 604.852 168.804 604.852 169.375C604.852 169.911 604.46 170 603.944 170C603.125 170 601.878 169.804 600.828 169.804C599.582 169.804 598.14 170 597.712 170C597.285 170 597 169.804 597 169.375C597 168.893 597.427 168.75 597.872 168.661C598.585 168.518 599.226 168.321 599.653 166.964C601.914 160.018 604.46 150.714 606.775 142.143C606.917 141.518 607.113 140.893 607.255 140.304C607.398 139.571 607.647 139 608.644 139C609.552 139 609.748 139.339 609.997 140.107C612.543 148.589 615.374 157.893 617.973 166.321C618.312 167.429 618.846 168.446 619.647 168.643C620.217 168.839 621 168.929 621 169.464C621 169.893 620.519 170 619.843 170C618.543 170 617.297 169.804 615.908 169.804C614.519 169.804 612.97 170 611.831 170C611.154 170 610.78 169.857 610.78 169.375C610.78 168.839 611.35 168.661 612.027 168.607C612.739 168.554 613.522 168.411 613.522 167.411C613.522 166.786 612.846 164.946 611.938 161.536C611.404 159.661 611.261 159.411 610.264 159.411H604.585H604.531ZM609.588 157.964C610.46 157.964 610.549 157.768 610.549 157.536C610.549 157.304 610.46 156.911 610.353 156.482C609.819 154.786 608.964 152.143 607.95 148.429C607.718 147.518 607.522 147.179 607.237 147.179C606.953 147.179 606.81 147.518 606.472 148.911C605.564 152.482 604.941 154.696 604.496 156.196C604.246 157.161 604.211 157.5 604.211 157.643C604.211 157.839 604.3 157.982 605.083 157.982H609.605L609.588 157.964Z" fill="#0574BA"/>
<path d="M560.335 165.895C560.335 167.596 560.577 168.316 562.084 168.491C563.033 168.684 563.944 168.772 563.944 169.439C563.944 169.86 563.535 170 562.735 170C561.879 170 561.284 169.807 557.972 169.807C554.66 169.807 554.102 170 553.153 170C552.502 170 552 170 552 169.333C552 168.772 552.856 168.667 553.805 168.474C555.405 168.246 555.516 167.947 555.516 166.053V143.649C555.516 142 555.256 141.667 553.953 141.526C552.502 141.281 552 141.439 552 140.719C552 140.246 552.409 140 553.153 140C554.605 140 556.074 140.193 557.972 140.193C559.981 140.193 561.488 140 562.847 140C563.498 140 564 140.14 564 140.719C564 141.333 563.405 141.333 561.935 141.526C560.633 141.667 560.335 142.228 560.335 143.649V165.86V165.895Z" fill="#0574BA"/>
<path d="M585.887 169.351C585.887 168.789 586.419 168.632 587.659 168.491C589.184 168.351 589.29 167.684 589.29 165.509C589.29 160.386 588.953 151.018 588.758 145.947C588.705 145.246 588.705 145 588.51 145C588.315 145 588.28 145.281 588.085 145.719C587.181 148.088 585.692 152.737 582.005 164.368C580.658 168.772 580.818 169.667 579.896 169.667C579.329 169.667 579.169 169.281 578.708 167.298C577.131 161.421 573.444 149.439 572.257 145.754C572.115 145.333 572.009 145.088 571.778 145.088C571.583 145.088 571.583 145.474 571.495 146.123C571.158 150.579 570.874 158.193 570.874 162.316C570.874 165.439 570.821 168.228 572.452 168.474C573.32 168.614 574.561 168.667 574.561 169.333C574.561 169.719 574.277 170 573.604 170C572.647 170 571.885 169.807 570.059 169.807C568.393 169.807 567.436 170 566.762 170C566.284 170 566 169.912 566 169.333C566 168.614 566.709 168.719 567.524 168.526C568.907 168.246 569.102 167.158 569.244 164.825C569.527 159.754 570.059 148.667 570.059 144.737C570.112 142.175 570.059 141.702 568.428 141.474C567.613 141.386 566.851 141.281 566.851 140.719C566.851 140.053 567.471 140 568.145 140C569.155 140 570.484 140.14 571.548 140.14C572.363 140.14 573.604 140 574.366 140C574.898 140 575.075 140.14 575.323 140.86C577.095 146.632 578.868 152.421 580.587 158.14C580.977 159.509 581.261 160.596 581.597 160.596C581.881 160.596 582.129 159.93 582.555 158.561C584.38 152.789 586.188 147 588.014 141.281C588.297 140.386 588.581 140 589.113 140C589.822 140 591.027 140.14 591.931 140.14C592.888 140.14 594.27 140 595.281 140C595.812 140 596.291 140.193 596.291 140.667C596.291 141.281 595.671 141.421 594.288 141.526C593.42 141.614 593.189 142.228 593.189 144.368C593.189 149.053 593.756 160.14 593.898 165.965C593.898 167.719 594.324 168.386 595.281 168.474C596.468 168.754 597 168.86 597 169.368C597 169.877 596.575 169.982 595.901 169.982C594.891 169.982 593.756 169.789 591.541 169.789C589.627 169.789 588.049 169.982 587.003 169.982C586.383 169.982 585.905 169.789 585.905 169.368V169.316L585.887 169.351Z" fill="#0574BA"/>
<path d="M534.503 144.599C534.503 142.142 534.217 141.615 533.002 141.527C531.697 141.387 531.071 141.334 531.071 140.72C531.071 140.246 531.411 140 532.126 140C533.377 140 534.485 140.193 537.095 140.193C539.258 140.193 540.866 140 541.671 140C542.296 140 542.636 140.193 542.636 140.614C542.636 141.281 541.867 141.229 540.795 141.475C539.258 141.703 539.061 142.089 539.061 143.792V165.12C539.061 167.578 539.687 168.578 542.243 168.578C545.675 168.578 547.355 166.401 548.373 163.277C548.802 161.908 548.945 161.434 549.428 161.434C549.857 161.434 550 161.627 550 163.084C550 164.892 549.911 166.63 549.857 168.438C549.803 169.86 549.66 170 549.088 170C546.479 170 544.513 169.807 538.382 169.807C534.861 169.807 533.502 170 532.108 170C531.34 170 531 169.807 531 169.333C531 168.806 531.483 168.613 532.644 168.473C534.146 168.332 534.485 167.753 534.485 166.015V144.599H534.503Z" fill="#0574BA"/>
<g clip-path="url(#clip0_390_236)">
<path d="M333.508 78.4717V58.4797H314.959V39.5205H296V98.0001H352.467V78.4717H333.508Z" fill="#999797"/>
<path d="M333.508 19.5283H314.959V39.5204H333.508V19.5283Z" fill="#AC2C1E"/>
<path d="M372.328 58.4795H352.467V78.4715H372.328V58.4795Z" fill="#AC2C1E"/>
<path d="M409.873 49.3653V21.6886C409.873 17.2748 413.45 13.6826 417.849 13.6826H422.23C426.629 13.6826 430.206 17.2748 430.206 21.6886V27.1331H423.6V23.8852C423.6 21.9181 422.003 20.316 420.038 20.316C418.073 20.316 416.479 21.9181 416.479 23.8852V47.171C416.479 49.1427 418.076 50.7448 420.038 50.7448C422.001 50.7448 423.6 49.1427 423.6 47.171V43.9255H430.206V49.3676C430.206 53.7815 426.629 57.3713 422.23 57.3713H417.849C413.45 57.3713 409.873 53.7815 409.873 49.3676V49.3653Z" fill="#999797"/>
<path d="M457.016 20.2954V50.7563C457.016 54.4035 454.061 57.369 450.426 57.369H443.271C439.638 57.369 436.68 54.4035 436.68 50.7563V20.2954C436.68 16.6481 439.636 13.6826 443.271 13.6826H450.426C454.061 13.6826 457.016 16.6481 457.016 20.2954ZM450.41 22.4943C450.41 21.2915 449.435 20.3137 448.237 20.3137H445.462C444.263 20.3137 443.289 21.2915 443.289 22.4943V48.5597C443.289 49.7601 444.263 50.7402 445.462 50.7402H448.237C449.435 50.7402 450.41 49.7624 450.41 48.5597V22.4943Z" fill="#999797"/>
<path d="M471.222 57.369H464.615V13.6826H473.5L478.67 38.2538L483.842 13.6826H492.823V57.369H486.216V33.7986L481.255 57.369H476.085L471.219 34.2577V57.369H471.222Z" fill="#999797"/>
<path d="M506.66 57.3687C503.025 57.3687 500.07 54.4031 500.07 50.7559V45.5525H506.676V48.5593C506.676 49.7621 507.65 50.7398 508.849 50.7398H511.596C512.795 50.7398 513.77 49.7621 513.77 48.5593V40.9711C513.77 39.7683 512.795 38.7905 511.596 38.7905H506.66C503.027 38.7905 500.07 35.825 500.07 32.1801V20.2973C500.07 16.6501 503.025 13.6846 506.66 13.6846H513.788C517.423 13.6846 520.378 16.6501 520.378 20.2973V25.5008H513.772V22.4962C513.772 21.2935 512.797 20.3157 511.599 20.3157H508.851C507.653 20.3157 506.678 21.2935 506.678 22.4962V29.9972C506.678 31.2 507.653 32.1778 508.851 32.1778H513.788C517.423 32.1778 520.378 35.1433 520.378 38.7882V50.7582C520.378 54.4054 517.423 57.371 513.788 57.371H506.66V57.3687Z" fill="#999797"/>
<path d="M532.122 57.369H525.514L534.71 13.6826H543.313L552.511 57.369H545.9L544.214 49.3561H533.811L532.122 57.369ZM535.204 42.7273H542.819L539.012 24.6427L535.204 42.7273Z" fill="#999797"/>
<path d="M578.538 57.369H558.232V13.6826H564.838V50.7425H578.538V57.3713V57.369Z" fill="#999797"/>
<path d="M583.674 50.7563V13.6826H590.28V50.7425H597.401V13.6826H604.008V50.7563C604.008 54.4035 601.052 57.369 597.417 57.369H590.262C586.629 57.369 583.674 54.4035 583.674 50.7563Z" fill="#999797"/>
<path d="M625.412 57.369H611.666V13.6826H625.412C629.045 13.6826 632.002 16.6481 632.002 20.2954V50.7563C632.002 54.4035 629.047 57.369 625.412 57.369ZM625.394 22.4943C625.394 21.2915 624.419 20.3137 623.221 20.3137H618.273V50.7425H623.221C624.419 50.7425 625.394 49.7647 625.394 48.562V22.4966V22.4943Z" fill="#999797"/>
<path d="M412.755 86.3767V74.3654C412.755 72.4511 414.308 70.8926 416.216 70.8926H418.117C420.027 70.8926 421.578 72.4511 421.578 74.3654V77.2046H418.712V75.3179C418.712 74.4641 418.019 73.7686 417.165 73.7686C416.312 73.7686 415.621 74.4641 415.621 75.3179V85.4218C415.621 86.278 416.314 86.9711 417.165 86.9711C418.016 86.9711 418.712 86.2711 418.712 85.4103V82.314H416.943V79.438H421.578V86.3744C421.578 88.2886 420.027 89.8471 418.117 89.8471H416.216C414.308 89.8471 412.755 88.2886 412.755 86.3744V86.3767Z" fill="#5F605F"/>
<path d="M431.465 89.8311L428.601 89.8219L428.662 70.8926L433.67 70.9109C435.55 70.9155 437.163 72.334 437.421 74.2093L437.435 74.3172C437.446 74.4182 437.453 74.5214 437.458 74.6408C437.46 74.6752 437.462 74.7051 437.462 74.7395V74.9162L437.456 76.9407C437.453 77.7831 437.181 78.5818 436.669 79.2498L436.55 79.4035L436.68 79.5459C437.163 80.0761 437.43 80.7669 437.428 81.49L437.401 89.854L434.548 89.8448L434.576 81.6965C434.576 81.4441 434.477 81.2076 434.301 81.0263C434.123 80.8473 433.887 80.7486 433.635 80.7486L431.492 80.7394L431.462 89.8334L431.465 89.8311ZM431.501 77.8611L433.485 77.8703H433.679C433.924 77.8657 434.13 77.7762 434.313 77.5948C434.491 77.4158 434.592 77.1817 434.592 76.9269L434.599 74.728C434.599 74.4755 434.5 74.2391 434.324 74.0601C434.148 73.8811 433.912 73.7824 433.658 73.7801L431.517 73.7732L431.504 77.8611H431.501Z" fill="#5F605F"/>
<path d="M453.338 89.8494H444.526V70.8926H453.338V73.7709H447.393V78.9192H451.792V81.7975H447.393V86.9757H453.338V89.8517V89.8494Z" fill="#5F605F"/>
<path d="M462.808 89.8494H459.942V70.8926H463.796L466.04 81.5542L468.285 70.8926H472.182V89.8494H469.316V79.6216L467.164 89.8494H464.922L462.81 79.8213V89.8494H462.808Z" fill="#5F605F"/>
<path d="M479.404 89.8494V70.8926H482.27V89.8494H479.404Z" fill="#5F605F"/>
<path d="M498.217 73.7617V86.9803C498.217 88.5618 496.933 89.8494 495.357 89.8494H492.253C490.677 89.8494 489.394 88.5618 489.394 86.9803V73.7617C489.394 72.1802 490.677 70.8926 492.253 70.8926H495.357C496.933 70.8926 498.217 72.1779 498.217 73.7617ZM495.348 74.7165C495.348 74.1955 494.925 73.7709 494.406 73.7709H493.202C492.683 73.7709 492.26 74.1955 492.26 74.7165V86.0255C492.26 86.5465 492.683 86.9711 493.202 86.9711H494.406C494.925 86.9711 495.348 86.5465 495.348 86.0255V74.7165Z" fill="#5F605F"/>
<path d="M522.46 89.8494H516.496V70.8926H522.46C524.036 70.8926 525.319 72.1802 525.319 73.7617V86.9803C525.319 88.5618 524.036 89.8494 522.46 89.8494ZM522.453 74.7165C522.453 74.1955 522.03 73.7709 521.511 73.7709H519.365V86.9734H521.511C522.03 86.9734 522.453 86.5488 522.453 86.0278V74.7188V74.7165Z" fill="#5F605F"/>
<path d="M541.261 89.8494H532.449V70.8926H541.261V73.7709H535.316V78.9192H539.715V81.7975H535.316V86.9757H541.261V89.8517V89.8494Z" fill="#5F605F"/>
<path d="M561.629 89.8498C560.053 89.8498 558.77 88.5621 558.77 86.9807V84.7221H561.636V86.0258C561.636 86.5468 562.059 86.9715 562.578 86.9715H563.77C564.289 86.9715 564.713 86.5468 564.713 86.0258V82.7321C564.713 82.211 564.289 81.7864 563.77 81.7864H561.629C560.053 81.7864 558.77 80.4987 558.77 78.9173V73.7597C558.77 72.1783 560.053 70.8906 561.629 70.8906H564.722C566.298 70.8906 567.581 72.1783 567.581 73.7597V76.0183H564.715V74.7146C564.715 74.1936 564.292 73.7689 563.772 73.7689H562.581C562.061 73.7689 561.638 74.1936 561.638 74.7146V77.9693C561.638 78.4904 562.061 78.915 562.581 78.915H564.722C566.298 78.915 567.581 80.2003 567.581 81.7841V86.9784C567.581 88.5598 566.3 89.8475 564.722 89.8475H561.629V89.8498Z" fill="#5F605F"/>
<path d="M576.512 89.8494H573.643L577.635 70.8926H581.368L585.357 89.8494H582.489L581.757 86.3721H577.241L576.509 89.8494H576.512ZM577.848 83.4961H581.151L579.499 75.6484L577.845 83.4961H577.848Z" fill="#5F605F"/>
<path d="M600.487 89.8494H591.676V70.8926H594.542V86.9734H600.487V89.8494Z" fill="#5F605F"/>
<path d="M606.551 86.9803V70.8926H609.418V86.9734H612.506V70.8926H615.374V86.9803C615.374 88.5618 614.091 89.8494 612.515 89.8494H609.411C607.835 89.8494 606.551 88.5618 606.551 86.9803Z" fill="#5F605F"/>
<path d="M628.493 89.8494H622.53V70.8926H628.493C630.069 70.8926 631.353 72.1802 631.353 73.7617V86.9803C631.353 88.5618 630.069 89.8494 628.493 89.8494ZM628.486 74.7165C628.486 74.1955 628.063 73.7709 627.544 73.7709H625.398V86.9734H627.544C628.063 86.9734 628.486 86.5488 628.486 86.0278V74.7188V74.7165Z" fill="#5F605F"/>
<path d="M333.508 0V19.5284H353.09V39.5204H372.325V58.4796H389.974V0H333.508Z" fill="#725741"/>
</g>
<defs>
<clipPath id="clip0_390_236">
<rect width="336" height="98" fill="white" transform="translate(296)"/>
</clipPath>
</defs>
</svg>
